<svg width="901" height="900" viewBox="0 0 901 900" fill="none" xmlns="http://www.w3.org/2000/svg">
<g clip-path="url(#clip0_962_178)">
<path d="M900.535 450C900.535 201.472 699.063 0 450.535 0C202.007 0 0.535156 201.472 0.535156 450C0.535156 698.528 202.007 900 450.535 900C699.063 900 900.535 698.528 900.535 450Z" fill="#00003C"/>
<path d="M875.535 444.83C875.535 210.109 685.256 19.8301 450.535 19.8301C215.814 19.8301 25.5352 210.109 25.5352 444.83C25.5352 679.551 215.814 869.83 450.535 869.83C685.256 869.83 875.535 679.551 875.535 444.83Z" stroke="white" stroke-width="8" stroke-miterlimit="10"/>
<path d="M462.295 337.29C461.225 337.29 460.155 336.88 459.345 336.07L443.695 320.42V169.18C443.695 166.88 445.565 165.01 447.865 165.01C450.165 165.01 452.035 166.88 452.035 169.18V316.96L465.245 330.16C466.875 331.79 466.875 334.43 465.245 336.06C464.425 336.87 463.365 337.28 462.295 337.28V337.29Z" fill="#F7F7F7"/>
<path d="M452.045 456.75V601.62L327.895 545.28V492.97L253.825 454.05V305.82C253.825 303.51 255.695 301.65 257.995 301.65C260.295 301.65 262.165 303.52 262.165 305.82V449.01L327.895 483.54V444.32L292.425 425.24V396.03C292.425 393.72 294.295 391.86 296.595 391.86C298.895 391.86 300.765 393.73 300.765 396.03V420.25L327.895 434.83V383.42L292.425 364.64V247.4C292.425 245.09 294.295 243.23 296.595 243.23C298.895 243.23 300.765 245.1 300.765 247.4V359.62L327.895 373.97V212.97C327.895 210.66 329.765 208.8 332.065 208.8C334.365 208.8 336.235 210.67 336.235 212.97V320.5L367.535 297.44V191.03C367.535 188.72 369.405 186.86 371.705 186.86C374.005 186.86 375.875 188.73 375.875 191.03V301.66L336.235 330.87V539.9L443.695 588.65V539.09L367.535 506.66V357.99L400.915 332.23V174.38C400.915 172.07 402.785 170.21 405.085 170.21C407.385 170.21 409.255 172.08 409.255 174.38V336.33L375.875 362.09V501.14L443.685 530.01V491.95L401.955 471.09V378.82C401.955 376.51 403.825 374.65 406.125 374.65C408.425 374.65 410.295 376.52 410.295 378.82V465.94L443.675 482.63V456.73C443.675 454.42 445.545 452.56 447.845 452.56C450.145 452.56 452.015 454.43 452.015 456.73L452.045 456.75Z" fill="#F7F7F7"/>
<path d="M604.475 435.26L604.595 435.29C603.385 435.22 602.185 435.49 601.115 436.06C600.055 436.62 599.165 437.48 598.545 438.52C594.865 430.25 591.205 422.42 575.115 407.71C577.195 408.34 579.365 408.65 581.545 408.63C586.605 408.63 592.115 407.24 595.315 404.09C595.735 405.58 596.645 406.9 597.895 407.82C599.145 408.74 600.675 409.2 602.225 409.16C607.265 409.16 609.115 405.94 609.115 402.26C609.115 400.87 608.645 399.49 607.265 399.49C604.515 399.49 606.825 405 602.225 405C601.765 405 601.305 404.9 600.885 404.7C600.465 404.51 600.085 404.22 599.785 403.88C599.485 403.53 599.255 403.12 599.125 402.67C598.995 402.23 598.945 401.76 599.005 401.31C599.005 399.03 600.375 396.25 600.375 393.03C600.535 389.92 599.605 386.85 597.765 384.35C595.925 381.84 593.285 380.03 590.285 379.24C588.885 378.97 587.625 378.23 586.705 377.15C585.785 376.05 585.265 374.69 585.235 373.26C585.235 369.58 587.985 369.13 589.765 369.13C591.545 369.13 592.985 369.58 592.985 368.21C592.985 366.84 591.615 365.91 588.855 365.91C585.645 365.91 581.045 368.21 581.045 373.26C581.015 374.29 581.205 375.32 581.595 376.27C581.995 377.22 582.585 378.09 583.335 378.78C581.165 379.16 579.195 380.29 577.765 381.97C576.335 383.65 575.535 385.79 575.525 387.99C575.525 391.2 576.435 394.41 578.745 394.41C581.495 394.41 579.185 392.11 579.185 388.43C579.185 384.3 582.865 382.47 586.545 382.47C591.595 382.47 596.175 387.01 596.175 393.05C596.175 399.95 590.665 404.55 581.935 404.55C578.455 404.7 575.005 404.07 571.805 402.7C568.615 401.33 565.785 399.25 563.505 396.62C553.855 386.03 548.405 376.85 548.405 360.31C548.405 339.13 563.505 320.75 585.605 314.78C587.995 314.08 590.105 312.63 591.595 310.64C593.075 308.65 593.885 306.22 593.875 303.73C593.875 299.19 591.115 295.47 586.535 295.47C584.685 295.47 583.315 295.91 583.315 297.3C583.315 298.69 584.685 298.68 585.605 298.68C586.825 298.81 587.935 299.42 588.695 300.36C589.475 301.3 589.835 302.51 589.735 303.73C589.735 304.74 589.525 305.73 589.125 306.65C588.725 307.58 588.155 308.41 587.415 309.1C586.675 309.8 585.805 310.33 584.865 310.67C583.925 311.01 582.915 311.16 581.905 311.1C576.865 311.1 573.645 307.42 573.645 302.35C573.645 292.7 585.135 286.25 593.865 282.14C586.045 278.45 583.295 277.07 577.325 272.48C576.715 271.89 576.225 271.18 575.915 270.41C575.595 269.62 575.445 268.78 575.495 267.94C575.495 265.64 576.865 263.79 578.705 263.79C579.015 263.78 579.315 263.82 579.605 263.93C579.895 264.04 580.155 264.21 580.365 264.43C580.585 264.64 580.755 264.91 580.865 265.19C580.975 265.48 581.015 265.78 581.005 266.09C581.005 267.46 580.075 267.46 580.075 268.39C580.055 268.58 580.065 268.77 580.135 268.94C580.195 269.12 580.295 269.28 580.425 269.42C580.555 269.55 580.725 269.66 580.905 269.72C581.085 269.78 581.285 269.8 581.455 269.76C582.385 269.76 584.675 268.85 584.675 265.22C584.685 264.46 584.545 263.69 584.245 262.98C583.945 262.27 583.495 261.64 582.925 261.12C582.365 260.6 581.695 260.2 580.965 259.96C580.245 259.72 579.475 259.63 578.705 259.69C577.695 259.69 576.715 259.9 575.785 260.3C574.865 260.7 574.035 261.29 573.345 262.02C572.645 262.75 572.115 263.61 571.775 264.57C571.445 265.51 571.285 266.52 571.355 267.53C567.755 264.56 564.375 261.33 561.245 257.88L546.545 241.78C542.415 237.24 544.705 228.45 550.675 228.45C551.255 228.41 551.825 228.48 552.365 228.67C552.905 228.86 553.405 229.16 553.825 229.54C554.245 229.93 554.585 230.4 554.825 230.92C555.065 231.44 555.195 232.02 555.205 232.59C555.205 236.72 551.065 234.87 551.065 237.13C551.065 237.36 551.105 237.61 551.195 237.82C551.295 238.04 551.425 238.24 551.605 238.4C551.785 238.57 551.995 238.69 552.225 238.75C552.445 238.83 552.695 238.85 552.925 238.83C553.815 238.84 554.695 238.66 555.515 238.31C556.325 237.97 557.065 237.45 557.665 236.8C558.275 236.15 558.735 235.38 559.025 234.54C559.325 233.7 559.435 232.8 559.355 231.92C559.235 229.73 558.245 227.68 556.605 226.21C554.965 224.75 552.815 224 550.625 224.12C544.575 224.12 540.525 228.66 540.525 235.17L535.915 230.1C515.705 208.03 499.175 198.33 483.045 198.33C477.845 198.25 472.735 199.69 468.345 202.48C457.795 209.65 462.565 222.58 462.565 222.58C462.575 222.56 462.585 222.52 462.595 222.5C463.545 224.96 465.155 227.11 467.235 228.72C468.225 229.46 470.315 230.51 471.505 230.8C472.915 231.24 474.375 231.45 475.855 231.45C483.645 231.45 486.425 226.91 486.425 223.63C486.425 220.87 484.575 218.57 482.745 218.57C482.295 218.57 481.825 219.05 482.745 219.96C483.045 220.26 483.285 220.61 483.445 221C483.605 221.4 483.645 221.82 483.655 222.24C483.865 228.4 474.475 228.4 470.955 226.01C468.255 224.17 465.335 220.41 465.335 215.34C465.335 208.44 471.305 202.47 483.245 202.47C497.015 202.47 511.265 208.45 533.325 232.81L558.585 260.41C563.365 265.91 568.775 270.86 574.675 275.13C578.355 277.9 581.565 279.67 585.245 282.04C581.385 284.32 577.825 287.1 574.675 290.3C574.245 287.58 572.845 285.1 570.735 283.33C568.625 281.55 565.945 280.6 563.185 280.64C561.115 280.67 559.095 281.25 557.325 282.31C555.555 283.37 554.085 284.89 553.075 286.69C552.765 287.55 552.215 288.33 551.485 288.89C550.755 289.47 549.875 289.81 548.965 289.91C548.655 289.92 548.345 289.88 548.055 289.77C547.765 289.66 547.515 289.49 547.295 289.27C547.075 289.05 546.905 288.79 546.795 288.5C546.695 288.21 546.655 287.91 546.665 287.6C546.665 286.69 546.205 285.76 545.295 285.76C543.915 285.76 543.455 287.14 543.455 288.06C543.425 288.79 543.545 289.52 543.805 290.21C544.075 290.9 544.485 291.52 545.005 292.04C545.515 292.56 546.135 292.96 546.825 293.22C547.515 293.5 548.245 293.62 548.975 293.59C550.105 293.56 551.215 293.24 552.185 292.66C552.485 294.63 553.485 296.42 555.005 297.7C556.535 298.96 558.475 299.64 560.455 299.57C562.295 299.57 563.665 299.12 563.665 297.73C563.665 296.34 562.745 296.36 561.375 296.36C560.685 296.44 559.995 296.37 559.345 296.14C558.695 295.92 558.095 295.55 557.605 295.06C557.125 294.57 556.755 293.99 556.535 293.33C556.315 292.68 556.235 291.98 556.325 291.29C556.395 289.53 557.145 287.86 558.435 286.65C559.715 285.44 561.435 284.79 563.195 284.85C567.805 284.85 571.025 288.07 571.025 293.6C571.025 296.37 569.625 298.65 569.625 302.32C569.625 307.84 572.395 312.45 576.985 313.82C554.925 323.47 544.365 342.79 544.365 360.28C544.365 376.35 549.875 389.23 563.185 401.65L573.755 411.77C586.155 423.27 597.185 436.12 597.185 454.99C597.185 473.86 582.945 488.11 564.105 488.11H563.935C547.855 488.11 537.305 478.91 537.305 465.12C537.305 453.62 545.115 444.42 554.305 444.42C557.965 444.42 561.195 445.8 561.195 449.48C561.195 451.77 560.275 453.62 562.565 453.62C563.935 453.62 565.335 452.25 565.335 448.55C565.335 444.01 561.195 440.28 555.225 440.28H553.825C554.455 438.98 554.765 437.57 554.755 436.13C554.775 435.29 554.625 434.44 554.305 433.65C553.995 432.86 553.515 432.14 552.925 431.55C552.325 430.94 551.605 430.48 550.825 430.16C550.035 429.85 549.185 429.7 548.345 429.72C545.125 429.72 541.915 431.56 541.915 433.86C541.885 434.05 541.905 434.24 541.955 434.41C542.025 434.59 542.125 434.75 542.255 434.89C542.385 435.02 542.555 435.12 542.735 435.18C542.915 435.24 543.105 435.26 543.285 435.22C544.655 435.22 545.125 433.86 547.425 433.86C547.855 433.8 548.285 433.86 548.695 434C549.115 434.14 549.485 434.38 549.795 434.69C550.105 435 550.335 435.37 550.485 435.79C550.625 436.2 550.675 436.64 550.625 437.07C550.625 440.29 547.865 441.61 545.575 443.05C541.745 445.3 538.575 448.53 536.395 452.42C534.215 456.29 533.105 460.69 533.175 465.14C533.175 478.01 540.525 486.32 551.085 489.96L544.195 500.55C535.005 500.55 530.395 507.46 522.135 522.16C521.755 520.28 520.705 518.6 519.205 517.41C517.685 516.23 515.795 515.63 513.875 515.72C508.815 515.72 505.595 519.4 505.595 524.47C505.535 525.02 505.705 525.57 506.045 526C506.385 526.42 506.885 526.7 507.425 526.76C507.735 526.78 508.045 526.73 508.335 526.63C508.615 526.52 508.875 526.35 509.095 526.13C509.305 525.92 509.475 525.65 509.585 525.38C509.695 525.09 509.745 524.78 509.725 524.47C509.685 523.89 509.755 523.32 509.945 522.78C510.135 522.24 510.425 521.74 510.805 521.31C511.195 520.89 511.665 520.55 512.185 520.31C512.715 520.08 513.285 519.94 513.855 519.94C517.065 519.94 518.385 522.23 518.385 524.99C518.485 528.13 517.515 531.21 515.615 533.74C505.985 549.36 492.655 557.19 481.185 557.19C471.055 557.19 465.095 551.21 465.095 545.23C465.095 539.71 468.305 535.11 473.815 535.11C477.495 535.11 479.785 537.41 479.785 540.61C479.785 543.38 477.495 543.38 477.495 544.76C477.495 545.68 478.415 546.13 479.335 546.13C482.105 546.13 483.865 542.93 483.865 539.7C483.865 534.64 479.735 530.95 473.765 530.95C471.345 530.95 469.155 531.98 466.935 532.94C461.945 535.1 460.445 541.7 460.905 545.53C461.365 549.36 461.945 551.79 465.075 554.92C466.855 556.7 470.185 558.62 472.205 559.4C468.425 563.74 462.555 573.6 462.535 573.58L459.855 577.87C459.855 577.87 458.815 579.96 459.855 581C460.895 582.04 462.125 581.04 462.535 580.58C464.025 578.91 470.295 566.08 475.685 560.69C477.505 561.07 479.345 561.22 481.195 561.14C494.045 561.14 509.675 551.49 519.325 534.94L525.295 524.82C531.265 514.71 535.405 504.58 544.125 504.58C548.665 504.58 551.945 507.36 551.945 511.01C551.955 511.87 551.815 512.71 551.495 513.5C551.185 514.3 550.705 515.02 550.115 515.61C549.505 516.22 548.785 516.69 548.005 517C547.215 517.32 546.365 517.48 545.515 517.45C542.305 517.45 542.305 516.07 540.985 516.07C540.745 516.05 540.485 516.07 540.255 516.16C540.025 516.25 539.815 516.38 539.635 516.56C539.455 516.73 539.325 516.94 539.235 517.17C539.145 517.41 539.115 517.66 539.145 517.9C539.145 519.75 541.905 521.6 545.575 521.6C546.975 521.62 548.355 521.37 549.645 520.84C550.945 520.32 552.115 519.54 553.095 518.55C554.085 517.56 554.855 516.39 555.375 515.1C555.905 513.8 556.165 512.41 556.135 511.02C556.055 508.75 555.265 506.55 553.865 504.74C552.455 502.95 550.535 501.64 548.335 501.01L554.755 491.35C557.785 491.88 560.855 492.18 563.935 492.27C585.085 492.27 601.155 476.63 601.155 455.02C601.235 452.56 601.075 450.1 600.705 447.67C599.785 442.61 600.705 439.4 604.385 439.4C604.835 439.34 605.305 439.38 605.735 439.51C606.175 439.65 606.585 439.88 606.935 440.17C607.275 440.48 607.565 440.85 607.755 441.27C607.955 441.69 608.055 442.14 608.055 442.61C608.055 443.98 607.135 445.83 608.975 445.83C611.275 445.83 611.275 443.06 611.275 442.15C611.275 438 608.975 435.23 604.385 435.23L604.475 435.26ZM614.145 356.19H614.065C609.945 351.11 607.645 348.81 607.645 346.98C607.645 345.15 609.015 342.44 610.395 339.15L624.175 308.81C628.315 299.61 631.985 291.8 631.985 282.15C631.985 275.24 629.235 268.35 622.355 262.37L602.595 245.34C601.805 244.69 601.275 243.77 601.115 242.76C600.945 241.74 601.145 240.7 601.675 239.83L609.025 223.28C609.315 222.73 609.375 222.08 609.205 221.49C609.035 220.89 608.655 220.38 608.105 220.07C585.595 204.94 559.875 195.68 535.515 188.79C511.235 182.38 478.725 173.21 462.615 160.84V175.13C476.855 184.28 499.785 190.21 525.465 197.14C552.555 204.51 570.945 210.01 593.915 224.28C595.285 225.19 595.285 226.58 594.355 228.42L587.015 243.55C586.765 244.07 586.665 244.66 586.745 245.23C586.825 245.81 587.085 246.35 587.485 246.77L610.375 267.44C615.885 271.98 620.005 276.63 620.005 283.08C620.005 290.9 616.345 298.2 612.665 306.05L596.625 341.01C595.705 342.85 593.855 346.53 593.855 348.37C593.855 350.21 595.705 352.5 597.535 354.81C622.355 382.4 630.615 405.38 630.615 431.14C630.615 461.39 618.215 488.16 592.485 514.34L592.525 514.36C572.315 535.05 542.455 549.76 513.975 563.57C495.165 572.75 476.835 581.92 462.615 592.93V607.68C480.975 592.98 500.705 583.79 519.515 574.6C547.995 560.81 579.705 545.63 601.745 522.66C623.805 500.1 643.085 470.22 643.085 431.14C643.085 403.08 634.825 381.93 614.145 356.18V356.19Z" fill="#F7F7F7"/>
<path d="M519.395 363.03C519.395 367.64 515.665 371.37 511.045 371.37C506.425 371.37 502.695 367.64 502.695 363.03C502.695 362.85 502.705 362.68 502.715 362.51L478.695 346.49V285.76C476.205 284.33 474.525 281.63 474.525 278.54C474.525 273.93 478.255 270.2 482.875 270.2C487.495 270.2 491.225 273.93 491.225 278.54C491.225 281.63 489.545 284.33 487.055 285.76V342.02L507.335 355.56C508.455 355 509.715 354.68 511.045 354.68C515.655 354.68 519.395 358.41 519.395 363.02V363.03Z" fill="#F7F7F7"/>
<path d="M494.275 505.93C494.275 510.54 490.545 514.27 485.925 514.27C481.305 514.27 477.575 510.54 477.575 505.93C477.575 502.84 479.255 500.14 481.745 498.71V473.51C479.255 472.08 477.575 469.38 477.575 466.29C477.575 461.68 481.305 457.95 485.925 457.95C490.545 457.95 494.275 461.68 494.275 466.29C494.275 469.38 492.595 472.08 490.105 473.51V498.71C492.595 500.14 494.275 502.84 494.275 505.93Z" fill="#F7F7F7"/>
<path d="M487.055 420.4C487.055 425.01 483.325 428.74 478.705 428.74C474.085 428.74 470.355 425.01 470.355 420.4C470.355 420.22 470.365 420.05 470.375 419.87L444.205 403.83V349.12C444.205 346.81 446.075 344.95 448.375 344.95C450.675 344.95 452.545 346.82 452.545 349.12V399.16L474.995 412.93C476.115 412.38 477.365 412.06 478.685 412.06C483.295 412.06 487.035 415.79 487.035 420.4H487.055Z" fill="#F7F7F7"/>
<path d="M237.075 615.84L200.535 710.83H207.085L243.555 615.84H237.065H237.075ZM330.675 673.22C327.995 670.1 324.505 668.14 320.225 667.34C323.995 666.26 326.915 664.34 328.995 661.57C331.085 658.76 332.125 655.54 332.125 651.9C332.125 645.68 329.885 641.04 325.395 637.95C320.895 634.87 314.615 633.33 306.525 633.33H274.375V638.62L284.175 639.39V697.31L274.375 698.09V703.32H310.675C318.095 703.32 323.935 701.68 328.225 698.4C332.555 695.11 334.715 690.33 334.715 684.04C334.715 679.96 333.375 676.35 330.685 673.22H330.675ZM291.375 639.82H306.525C312.695 639.82 317.305 640.8 320.345 642.76C323.395 644.68 324.915 647.79 324.915 652.07C324.915 656.35 323.405 659.42 320.395 661.62C317.435 663.78 313.115 664.91 307.415 664.98H291.365V639.81L291.375 639.82ZM323.115 693.89C320.185 696.22 316.045 697.37 310.665 697.37H291.375V670.64H310.665C315.995 670.64 320.125 671.86 323.045 674.3C326.005 676.74 327.485 679.95 327.485 683.92C327.485 688.25 326.025 691.57 323.105 693.89H323.115ZM569.415 632.57V703.32H588.855V632.57H569.415ZM673.795 638.62L683.595 639.39V691.49L683.225 691.6L641.035 633.32H624.025V638.61L633.825 639.38V697.3L624.025 698.08V703.31H650.825V698.08L641.025 697.3V645.09L641.395 645.03L683.585 703.31H690.735V639.38L700.535 638.61V633.32H673.795V638.62Z" fill="#F7F7F7"/>
<path d="M506.975 635.07H487.775L456.015 705.82H474.845L480.745 691.8H513.815L519.635 705.82H538.845L506.965 635.07H506.975ZM486.665 677.77L497.425 652.24L508.015 677.77H486.665Z" fill="#F7F7F7"/>
<path d="M424.705 700.05L413.435 674.11C414.845 673.77 416.155 673.32 417.365 672.77C420.975 671.13 423.675 668.87 425.485 665.98C427.335 663.06 428.245 659.66 428.245 655.77C428.245 651.48 427.305 647.86 425.415 644.9C423.535 641.93 420.795 639.68 417.185 638.16C413.575 636.61 409.155 635.82 403.905 635.82H368.265V641.11L378.065 641.88V699.8L368.265 700.58V705.81H395.065V700.58L385.265 699.8V675.17H403.895C404.785 675.17 405.645 675.15 406.485 675.1L419.465 705.81H431.905V700.58L424.695 700.04L424.705 700.05ZM385.285 669.18V641.84H403.915C409.885 641.84 414.235 643.04 416.955 645.44C419.675 647.81 421.045 651.25 421.045 655.78C421.045 660.31 419.675 663.53 416.955 665.81C414.275 668.05 409.925 669.18 403.915 669.18H385.285Z" fill="#F7F7F7"/>
</g>
<defs>
<clipPath id="clip0_962_178">
<rect width="900" height="900" fill="white" transform="translate(0.535156)"/>
</clipPath>
</defs>
</svg>
