<svg width="2395" height="632" viewBox="0 0 2395 632" fill="none" xmlns="http://www.w3.org/2000/svg">
<path d="M309.941 262.4C308.721 262.4 307.501 261.93 306.571 261.01L288.711 243.15V70.55C288.711 67.92 290.841 65.79 293.471 65.79C296.101 65.79 298.231 67.92 298.231 70.55V239.21L313.301 254.28C315.161 256.14 315.161 259.15 313.301 261.01C312.371 261.94 311.151 262.4 309.931 262.4H309.941Z" fill="#00003C"/>
<path d="M298.23 398.73V564.07L156.54 499.78V440.08L72 395.67V226.5C72 223.87 74.13 221.74 76.76 221.74C79.39 221.74 81.52 223.87 81.52 226.5V389.92L156.53 429.32V384.56L116.05 362.79V329.46C116.05 326.83 118.18 324.7 120.81 324.7C123.44 324.7 125.57 326.83 125.57 329.46V357.1L156.53 373.74V315.06L116.05 293.63V159.83C116.05 157.2 118.18 155.07 120.81 155.07C123.44 155.07 125.57 157.2 125.57 159.83V287.91L156.53 304.29V120.55C156.53 117.92 158.66 115.79 161.29 115.79C163.92 115.79 166.05 117.92 166.05 120.55V243.27L201.77 216.95V95.5C201.77 92.87 203.9 90.74 206.53 90.74C209.16 90.74 211.29 92.87 211.29 95.5V221.76L166.05 255.09V493.65L288.69 549.29V492.73L201.77 455.72V286.05L239.87 256.65V76.5C239.87 73.87 242 71.74 244.63 71.74C247.26 71.74 249.39 73.87 249.39 76.5V261.32L211.29 290.72V449.41L288.68 482.36V438.92L241.05 415.11V309.81C241.05 307.18 243.18 305.05 245.81 305.05C248.44 305.05 250.57 307.18 250.57 309.81V409.23L288.67 428.28V398.72C288.67 396.09 290.8 393.96 293.43 393.96C296.06 393.96 298.19 396.09 298.19 398.72L298.23 398.73Z" fill="#00003C"/>
<path d="M472.199 374.21L472.339 374.25C470.959 374.17 469.59 374.48 468.37 375.13C467.16 375.77 466.15 376.75 465.44 377.93C461.24 368.49 457.06 359.56 438.7 342.77C441.08 343.49 443.55 343.84 446.04 343.82C451.81 343.82 458.109 342.23 461.759 338.64C462.239 340.35 463.279 341.85 464.699 342.9C466.129 343.95 467.87 344.48 469.64 344.43C475.39 344.43 477.5 340.75 477.5 336.56C477.5 334.97 476.97 333.4 475.39 333.4C472.26 333.4 474.88 339.69 469.64 339.69C469.11 339.69 468.589 339.58 468.109 339.35C467.629 339.14 467.199 338.81 466.859 338.42C466.519 338.02 466.25 337.55 466.1 337.04C465.95 336.53 465.9 336 465.96 335.49C465.96 332.89 467.529 329.72 467.529 326.04C467.709 322.49 466.649 318.99 464.549 316.14C462.449 313.27 459.429 311.21 456.009 310.3C454.419 310 452.979 309.15 451.929 307.91C450.879 306.66 450.29 305.11 450.25 303.48C450.25 299.29 453.379 298.77 455.419 298.77C457.459 298.77 459.1 299.29 459.1 297.72C459.1 296.15 457.53 295.09 454.39 295.09C450.73 295.09 445.48 297.72 445.48 303.48C445.44 304.65 445.659 305.83 446.109 306.92C446.569 308.01 447.229 308.99 448.089 309.79C445.609 310.22 443.36 311.51 441.73 313.43C440.1 315.35 439.19 317.79 439.18 320.3C439.18 323.96 440.219 327.63 442.859 327.63C445.989 327.63 443.369 325 443.369 320.81C443.369 316.1 447.57 314.01 451.77 314.01C457.53 314.01 462.759 319.19 462.759 326.09C462.759 333.96 456.469 339.22 446.509 339.22C442.539 339.4 438.6 338.68 434.95 337.11C431.31 335.54 428.08 333.17 425.47 330.17C414.45 318.08 408.23 307.61 408.23 288.73C408.23 264.56 425.47 243.58 450.69 236.77C453.42 235.97 455.819 234.32 457.529 232.04C459.219 229.77 460.149 227 460.129 224.16C460.129 218.98 456.98 214.74 451.75 214.74C449.64 214.74 448.069 215.25 448.069 216.82C448.069 218.39 449.64 218.4 450.69 218.4C452.08 218.55 453.339 219.25 454.219 220.32C455.099 221.39 455.52 222.77 455.41 224.16C455.41 225.31 455.17 226.45 454.71 227.5C454.25 228.56 453.599 229.51 452.759 230.29C451.909 231.09 450.93 231.69 449.85 232.08C448.78 232.47 447.63 232.64 446.48 232.57C440.73 232.57 437.049 228.38 437.049 222.59C437.049 211.57 450.17 204.22 460.12 199.52C451.2 195.31 448.05 193.73 441.24 188.49C440.54 187.82 439.989 187.01 439.639 186.13C439.269 185.23 439.109 184.27 439.159 183.31C439.159 180.68 440.729 178.57 442.819 178.57C443.169 178.56 443.509 178.61 443.839 178.73C444.169 178.86 444.47 179.05 444.71 179.3C444.96 179.54 445.149 179.84 445.279 180.17C445.409 180.5 445.46 180.84 445.44 181.19C445.44 182.76 444.379 182.76 444.379 183.82C444.349 184.03 444.37 184.25 444.44 184.45C444.5 184.65 444.62 184.84 444.77 184.99C444.92 185.14 445.11 185.27 445.31 185.33C445.51 185.39 445.74 185.42 445.94 185.38C447 185.38 449.62 184.34 449.62 180.2C449.63 179.33 449.469 178.46 449.129 177.65C448.789 176.84 448.269 176.12 447.629 175.53C446.989 174.94 446.23 174.48 445.39 174.2C444.57 173.92 443.679 173.82 442.809 173.9C441.659 173.9 440.54 174.14 439.47 174.59C438.42 175.04 437.47 175.71 436.69 176.55C435.89 177.38 435.289 178.37 434.899 179.46C434.519 180.53 434.34 181.68 434.42 182.83C430.31 179.44 426.459 175.76 422.879 171.81L406.099 153.44C401.389 148.26 403.999 138.23 410.809 138.23C411.469 138.18 412.12 138.27 412.74 138.48C413.36 138.69 413.93 139.04 414.41 139.48C414.89 139.92 415.279 140.47 415.549 141.06C415.829 141.65 415.97 142.31 415.98 142.97C415.98 147.68 411.25 145.57 411.25 148.15C411.25 148.42 411.3 148.69 411.4 148.93C411.51 149.18 411.669 149.41 411.869 149.59C412.069 149.78 412.309 149.92 412.579 149.99C412.829 150.08 413.109 150.1 413.379 150.08C414.389 150.09 415.399 149.89 416.339 149.49C417.259 149.1 418.11 148.5 418.79 147.77C419.49 147.02 420.019 146.15 420.339 145.19C420.679 144.23 420.81 143.21 420.72 142.2C420.58 139.7 419.459 137.36 417.589 135.68C415.719 134.01 413.27 133.15 410.77 133.29C403.87 133.29 399.25 138.47 399.25 145.9L393.99 140.11C370.93 114.92 352.06 103.85 333.65 103.85C327.71 103.76 321.889 105.4 316.869 108.59C304.829 116.77 310.27 131.53 310.27 131.53C310.28 131.5 310.299 131.47 310.309 131.44C311.399 134.24 313.229 136.7 315.599 138.54C316.729 139.39 319.11 140.58 320.48 140.92C322.08 141.43 323.75 141.67 325.45 141.67C334.35 141.67 337.52 136.49 337.52 132.75C337.52 129.6 335.409 126.98 333.319 126.98C332.799 126.98 332.269 127.52 333.319 128.57C333.659 128.91 333.939 129.32 334.119 129.76C334.299 130.21 334.339 130.69 334.359 131.17C334.599 138.21 323.879 138.21 319.869 135.48C316.779 133.38 313.45 129.09 313.45 123.3C313.45 115.43 320.26 108.61 333.9 108.61C349.62 108.61 365.879 115.43 391.049 143.24L419.869 174.74C425.329 181.02 431.5 186.67 438.23 191.54C442.43 194.7 446.089 196.72 450.299 199.42C445.889 202.02 441.83 205.19 438.23 208.84C437.74 205.73 436.14 202.9 433.73 200.88C431.32 198.85 428.259 197.76 425.109 197.81C422.749 197.85 420.45 198.5 418.43 199.72C416.41 200.93 414.729 202.66 413.579 204.72C413.229 205.71 412.59 206.59 411.76 207.23C410.93 207.89 409.929 208.28 408.879 208.39C408.529 208.4 408.169 208.35 407.839 208.23C407.509 208.1 407.22 207.91 406.97 207.66C406.72 207.41 406.53 207.12 406.4 206.78C406.29 206.45 406.24 206.11 406.25 205.76C406.25 204.72 405.72 203.66 404.68 203.66C403.1 203.66 402.579 205.24 402.579 206.29C402.539 207.12 402.68 207.96 402.98 208.74C403.28 209.52 403.749 210.23 404.339 210.82C404.919 211.41 405.63 211.87 406.41 212.17C407.19 212.49 408.029 212.62 408.859 212.59C410.149 212.55 411.41 212.19 412.52 211.53C412.86 213.78 414 215.83 415.74 217.28C417.48 218.72 419.69 219.49 421.96 219.42C424.06 219.42 425.619 218.9 425.619 217.32C425.619 215.74 424.57 215.75 423 215.75C422.22 215.84 421.42 215.76 420.69 215.5C419.94 215.25 419.26 214.83 418.71 214.26C418.17 213.7 417.74 213.03 417.48 212.29C417.23 211.54 417.14 210.75 417.24 209.97C417.32 207.96 418.18 206.05 419.65 204.68C421.12 203.3 423.069 202.56 425.079 202.62C430.339 202.62 434.01 206.3 434.01 212.6C434.01 215.76 432.42 218.36 432.42 222.56C432.42 228.86 435.579 234.12 440.819 235.69C415.649 246.71 403.589 268.75 403.589 288.71C403.589 307.05 409.879 321.75 425.069 335.92L437.139 347.47C451.289 360.6 463.879 375.26 463.879 396.79C463.879 418.32 447.629 434.59 426.119 434.59H425.93C407.58 434.59 395.54 424.09 395.54 408.35C395.54 395.22 404.45 384.72 414.94 384.72C419.12 384.72 422.799 386.3 422.799 390.49C422.799 393.11 421.749 395.22 424.369 395.22C425.939 395.22 427.53 393.65 427.53 389.43C427.53 384.25 422.8 379.99 415.99 379.99H414.4C415.12 378.51 415.47 376.89 415.46 375.25C415.49 374.29 415.31 373.32 414.94 372.42C414.59 371.52 414.039 370.7 413.359 370.02C412.679 369.33 411.86 368.79 410.96 368.43C410.06 368.08 409.089 367.9 408.129 367.92C404.449 367.92 400.79 370.02 400.79 372.65C400.75 372.86 400.779 373.08 400.839 373.28C400.919 373.48 401.03 373.67 401.18 373.82C401.33 373.97 401.52 374.09 401.72 374.15C401.92 374.21 402.139 374.24 402.349 374.2C403.919 374.2 404.449 372.65 407.079 372.65C407.569 372.59 408.07 372.65 408.53 372.81C409.01 372.97 409.43 373.24 409.78 373.59C410.13 373.94 410.399 374.36 410.559 374.84C410.719 375.31 410.78 375.81 410.72 376.31C410.72 379.99 407.57 381.49 404.96 383.13C400.59 385.69 396.97 389.38 394.48 393.82C391.99 398.24 390.729 403.26 390.799 408.34C390.799 423.03 399.19 432.51 411.25 436.66L403.389 448.75C392.899 448.75 387.65 456.63 378.22 473.41C377.79 471.26 376.589 469.34 374.869 467.99C373.139 466.64 370.98 465.96 368.79 466.06C363.02 466.06 359.339 470.25 359.339 476.04C359.279 476.67 359.469 477.29 359.859 477.78C360.249 478.26 360.82 478.58 361.44 478.65C361.79 478.68 362.15 478.61 362.48 478.5C362.8 478.37 363.099 478.18 363.349 477.93C363.589 477.69 363.78 477.39 363.91 477.07C364.04 476.74 364.089 476.39 364.069 476.03C364.019 475.37 364.109 474.72 364.319 474.1C364.529 473.48 364.859 472.91 365.309 472.42C365.749 471.94 366.299 471.55 366.889 471.28C367.499 471.01 368.139 470.86 368.799 470.86C372.459 470.86 373.97 473.48 373.97 476.62C374.08 480.21 372.969 483.72 370.809 486.6C359.819 504.43 344.6 513.36 331.51 513.36C319.95 513.36 313.149 506.54 313.149 499.72C313.149 493.42 316.809 488.17 323.109 488.17C327.309 488.17 329.92 490.8 329.92 494.45C329.92 497.61 327.299 497.61 327.299 499.19C327.299 500.24 328.35 500.76 329.4 500.76C332.56 500.76 334.569 497.11 334.569 493.42C334.569 487.65 329.859 483.44 323.049 483.44C320.279 483.44 317.79 484.62 315.25 485.71C309.55 488.17 307.839 495.71 308.359 500.08C308.879 504.45 309.549 507.22 313.119 510.79C315.159 512.83 318.96 515.01 321.26 515.9C316.95 520.85 310.24 532.11 310.23 532.08L307.17 536.97C307.17 536.97 305.98 539.35 307.17 540.54C308.36 541.73 309.76 540.58 310.23 540.06C311.93 538.16 319.09 523.51 325.24 517.36C327.31 517.79 329.42 517.97 331.53 517.88C346.2 517.88 364.029 506.86 375.049 487.98L381.859 476.43C388.669 464.9 393.399 453.34 403.349 453.34C408.529 453.34 412.27 456.51 412.27 460.68C412.28 461.67 412.12 462.63 411.75 463.52C411.4 464.43 410.85 465.25 410.17 465.93C409.47 466.62 408.65 467.17 407.76 467.52C406.86 467.89 405.89 468.06 404.92 468.04C401.26 468.04 401.26 466.46 399.75 466.46C399.47 466.43 399.18 466.46 398.92 466.56C398.65 466.66 398.41 466.81 398.21 467.01C398.01 467.2 397.86 467.44 397.76 467.7C397.66 467.98 397.62 468.26 397.66 468.53C397.66 470.64 400.81 472.75 405 472.75C406.59 472.78 408.17 472.48 409.65 471.88C411.13 471.29 412.469 470.4 413.589 469.26C414.709 468.14 415.6 466.8 416.19 465.32C416.8 463.84 417.089 462.25 417.059 460.66C416.969 458.07 416.06 455.56 414.47 453.5C412.87 451.45 410.67 449.96 408.16 449.24L415.49 438.21C418.95 438.82 422.45 439.16 425.97 439.26C450.11 439.26 468.449 421.41 468.449 396.75C468.539 393.95 468.359 391.14 467.929 388.36C466.879 382.59 467.929 378.92 472.129 378.92C472.649 378.86 473.179 378.89 473.669 379.05C474.179 379.21 474.639 379.47 475.029 379.81C475.419 380.16 475.749 380.58 475.969 381.06C476.199 381.54 476.31 382.06 476.31 382.59C476.31 384.16 475.259 386.27 477.359 386.27C479.989 386.27 479.989 383.11 479.989 382.08C479.989 377.34 477.359 374.18 472.129 374.18L472.199 374.21ZM483.23 283.97H483.14C478.44 278.17 475.81 275.54 475.81 273.46C475.81 271.38 477.38 268.28 478.94 264.53L494.669 229.9C499.399 219.4 503.58 210.48 503.58 199.48C503.58 191.6 500.449 183.73 492.589 176.9L470.029 157.47C469.129 156.72 468.529 155.68 468.339 154.53C468.149 153.37 468.38 152.18 468.98 151.18L477.37 132.29C477.7 131.66 477.769 130.93 477.569 130.24C477.379 129.56 476.939 128.98 476.319 128.62C450.629 111.35 421.28 100.79 393.48 92.92C365.77 85.6 328.67 75.14 310.28 61.02V77.33C326.53 87.78 352.7 94.54 382 102.45C412.92 110.86 433.91 117.14 460.12 133.43C461.69 134.47 461.689 136.06 460.629 138.16L452.25 155.43C451.96 156.02 451.849 156.69 451.949 157.35C452.039 158.01 452.339 158.63 452.799 159.11L478.919 182.7C485.209 187.88 489.91 193.19 489.91 200.55C489.91 209.47 485.729 217.81 481.529 226.77L463.219 266.67C462.169 268.77 460.06 272.97 460.06 275.07C460.06 277.17 462.169 279.78 464.259 282.42C492.589 313.9 502.02 340.13 502.02 369.53C502.02 404.06 487.87 434.61 458.5 464.49L458.549 464.52C435.489 488.13 401.41 504.92 368.91 520.68C347.44 531.15 326.53 541.63 310.29 554.18V571.01C331.24 554.23 353.76 543.75 375.23 533.26C407.73 517.52 443.92 500.2 469.08 473.98C494.25 448.23 516.259 414.13 516.259 369.54C516.259 337.51 506.83 313.38 483.23 284V283.97Z" fill="#00003C"/>
<path d="M375.101 291.77C375.101 297.03 370.841 301.29 365.571 301.29C360.301 301.29 356.041 297.03 356.041 291.77C356.041 291.57 356.051 291.37 356.061 291.17L328.651 272.89V203.58C325.801 201.95 323.891 198.87 323.891 195.34C323.891 190.08 328.151 185.82 333.421 185.82C338.691 185.82 342.951 190.08 342.951 195.34C342.951 198.86 341.031 201.95 338.191 203.58V267.79L361.341 283.24C362.611 282.6 364.051 282.24 365.581 282.24C370.841 282.24 375.111 286.5 375.111 291.76L375.101 291.77Z" fill="#00003C"/>
<path d="M346.429 454.86C346.429 460.12 342.169 464.38 336.899 464.38C331.629 464.38 327.369 460.12 327.369 454.86C327.369 451.34 329.289 448.25 332.129 446.62V417.86C329.279 416.23 327.369 413.15 327.369 409.62C327.369 404.36 331.629 400.1 336.899 400.1C342.169 400.1 346.429 404.36 346.429 409.62C346.429 413.14 344.509 416.23 341.669 417.86V446.62C344.519 448.25 346.429 451.33 346.429 454.86Z" fill="#00003C"/>
<path d="M338.189 357.25C338.189 362.51 333.929 366.77 328.659 366.77C323.389 366.77 319.129 362.51 319.129 357.25C319.129 357.05 319.139 356.85 319.149 356.64L289.289 338.33V275.89C289.289 273.26 291.419 271.13 294.049 271.13C296.679 271.13 298.809 273.26 298.809 275.89V332.99L324.429 348.7C325.699 348.07 327.129 347.71 328.639 347.71C333.899 347.71 338.169 351.97 338.169 357.23L338.189 357.25Z" fill="#00003C"/>
<path d="M717.89 151.47L591.33 480.52H614.03L740.37 151.47H717.89ZM1042.13 350.24C1032.84 339.44 1020.77 332.64 1005.92 329.86C1018.97 326.1 1029.09 319.45 1036.31 309.88C1043.54 300.16 1047.15 289 1047.15 276.39C1047.15 254.86 1039.38 238.78 1023.84 228.08C1008.26 217.42 986.51 212.07 958.46 212.07H847.08V230.39L881.01 233.06V433.7L847.08 436.41V454.51H972.81C998.51 454.51 1018.74 448.84 1033.6 437.46C1048.6 426.08 1056.08 409.49 1056.08 387.71C1056.08 373.58 1051.45 361.08 1042.13 350.24ZM958.46 234.54C979.82 234.54 995.79 237.94 1006.34 244.73C1016.89 251.38 1022.17 262.15 1022.17 277C1022.17 291.85 1016.93 302.47 1006.52 310.1C996.26 317.58 981.3 321.48 961.56 321.73H905.98V234.54H958.46ZM1015.93 421.85C1005.77 429.91 991.43 433.92 972.82 433.92H906V341.31H972.82C991.29 341.31 1005.6 345.54 1015.72 353.99C1025.98 362.44 1031.12 373.57 1031.12 387.3C1031.12 402.29 1026.06 413.78 1015.94 421.84L1015.93 421.85ZM1869.14 209.43V454.51H1936.47V209.43H1869.14ZM2230.71 212.07V230.39L2264.64 233.06V413.54L2263.38 413.94L2117.23 212.07H2058.32V230.39L2092.25 233.06V433.7L2058.32 436.41V454.51H2151.16V436.41L2117.23 433.7V252.86L2118.49 252.64L2264.64 454.51H2289.4V233.06L2323.33 230.39V212.07H2230.71Z" fill="#00003C"/>
<path d="M1652.84 218.09H1586.34L1476.33 463.17H1541.56L1562.01 414.61H1676.57L1696.74 463.17H1763.27L1652.83 218.09H1652.84ZM1582.48 366.01L1619.74 277.56L1656.42 366.01H1582.48Z" fill="#00003C"/>
<path d="M1367.85 443.19L1328.82 353.33C1333.7 352.14 1338.25 350.58 1342.44 348.71C1354.94 343.04 1364.3 335.2 1370.56 325.19C1376.96 315.07 1380.14 303.29 1380.14 289.82C1380.14 274.97 1376.89 262.43 1370.35 252.17C1363.85 241.87 1354.34 234.1 1341.84 228.83C1329.34 223.45 1314.01 220.74 1295.83 220.74H1172.38V239.06L1206.31 241.73V442.37L1172.38 445.08V463.18H1265.22V445.08L1231.29 442.37V357.06H1295.83C1298.9 357.06 1301.9 356.99 1304.79 356.81L1349.75 463.18H1392.83V445.08L1367.86 443.2L1367.85 443.19ZM1231.28 241.54H1295.82C1316.49 241.54 1331.56 245.7 1340.99 254.01C1350.42 262.21 1355.16 274.14 1355.16 289.82C1355.16 305.5 1350.43 316.67 1340.99 324.58C1331.7 332.35 1316.63 336.25 1295.82 336.25H1231.28V241.54Z" fill="#00003C"/>
</svg>
