<svg width="2396" height="632" viewBox="0 0 2396 632" fill="none" xmlns="http://www.w3.org/2000/svg">
<path d="M310.27 262.4C309.05 262.4 307.83 261.93 306.9 261.01L289.04 243.15V70.55C289.04 67.92 291.17 65.79 293.8 65.79C296.43 65.79 298.56 67.92 298.56 70.55V239.21L313.63 254.28C315.49 256.14 315.49 259.15 313.63 261.01C312.7 261.94 311.48 262.4 310.26 262.4H310.27Z" fill="white"/>
<path d="M298.56 398.73V564.07L156.87 499.78V440.08L72.3301 395.67V226.5C72.3301 223.87 74.4601 221.74 77.0901 221.74C79.7201 221.74 81.8501 223.87 81.8501 226.5V389.92L156.86 429.32V384.56L116.38 362.79V329.46C116.38 326.83 118.51 324.7 121.14 324.7C123.77 324.7 125.9 326.83 125.9 329.46V357.1L156.86 373.74V315.06L116.38 293.63V159.83C116.38 157.2 118.51 155.07 121.14 155.07C123.77 155.07 125.9 157.2 125.9 159.83V287.91L156.86 304.29V120.55C156.86 117.92 158.99 115.79 161.62 115.79C164.25 115.79 166.38 117.92 166.38 120.55V243.27L202.1 216.95V95.5C202.1 92.87 204.23 90.74 206.86 90.74C209.49 90.74 211.62 92.87 211.62 95.5V221.76L166.38 255.09V493.65L289.02 549.29V492.73L202.1 455.72V286.05L240.2 256.65V76.5C240.2 73.87 242.33 71.74 244.96 71.74C247.59 71.74 249.72 73.87 249.72 76.5V261.32L211.62 290.72V449.41L289.01 482.36V438.92L241.38 415.11V309.81C241.38 307.18 243.51 305.05 246.14 305.05C248.77 305.05 250.9 307.18 250.9 309.81V409.23L289 428.28V398.72C289 396.09 291.13 393.96 293.76 393.96C296.39 393.96 298.52 396.09 298.52 398.72L298.56 398.73Z" fill="white"/>
<path d="M472.53 374.21L472.67 374.25C471.29 374.17 469.92 374.48 468.7 375.13C467.49 375.77 466.48 376.75 465.77 377.93C461.57 368.49 457.39 359.56 439.03 342.77C441.41 343.49 443.88 343.84 446.37 343.82C452.14 343.82 458.44 342.23 462.09 338.64C462.57 340.35 463.61 341.85 465.03 342.9C466.46 343.95 468.2 344.48 469.97 344.43C475.72 344.43 477.83 340.75 477.83 336.56C477.83 334.97 477.3 333.4 475.72 333.4C472.59 333.4 475.21 339.69 469.97 339.69C469.44 339.69 468.92 339.58 468.44 339.35C467.96 339.14 467.53 338.81 467.19 338.42C466.85 338.02 466.58 337.55 466.43 337.04C466.28 336.53 466.23 336 466.29 335.49C466.29 332.89 467.86 329.72 467.86 326.04C468.04 322.49 466.98 318.99 464.88 316.14C462.78 313.27 459.76 311.21 456.34 310.3C454.75 310 453.31 309.15 452.26 307.91C451.21 306.66 450.62 305.11 450.58 303.48C450.58 299.29 453.71 298.77 455.75 298.77C457.79 298.77 459.43 299.29 459.43 297.72C459.43 296.15 457.86 295.09 454.72 295.09C451.06 295.09 445.81 297.72 445.81 303.48C445.77 304.65 445.99 305.83 446.44 306.92C446.9 308.01 447.56 308.99 448.42 309.79C445.94 310.22 443.69 311.51 442.06 313.43C440.43 315.35 439.52 317.79 439.51 320.3C439.51 323.96 440.55 327.63 443.19 327.63C446.32 327.63 443.7 325 443.7 320.81C443.7 316.1 447.9 314.01 452.1 314.01C457.86 314.01 463.09 319.19 463.09 326.09C463.09 333.96 456.8 339.22 446.84 339.22C442.87 339.4 438.93 338.68 435.28 337.11C431.64 335.54 428.41 333.17 425.8 330.17C414.78 318.08 408.56 307.61 408.56 288.73C408.56 264.56 425.8 243.58 451.02 236.77C453.75 235.97 456.15 234.32 457.86 232.04C459.55 229.77 460.48 227 460.46 224.16C460.46 218.98 457.31 214.74 452.08 214.74C449.97 214.74 448.4 215.25 448.4 216.82C448.4 218.39 449.97 218.4 451.02 218.4C452.41 218.55 453.67 219.25 454.55 220.32C455.43 221.39 455.85 222.77 455.74 224.16C455.74 225.31 455.5 226.45 455.04 227.5C454.58 228.56 453.93 229.51 453.09 230.29C452.24 231.09 451.26 231.69 450.18 232.08C449.11 232.47 447.96 232.64 446.81 232.57C441.06 232.57 437.38 228.38 437.38 222.59C437.38 211.57 450.5 204.22 460.45 199.52C451.53 195.31 448.38 193.73 441.57 188.49C440.87 187.82 440.32 187.01 439.97 186.13C439.6 185.23 439.44 184.27 439.49 183.31C439.49 180.68 441.06 178.57 443.15 178.57C443.5 178.56 443.84 178.61 444.17 178.73C444.5 178.86 444.8 179.05 445.04 179.3C445.29 179.54 445.48 179.84 445.61 180.17C445.74 180.5 445.79 180.84 445.77 181.19C445.77 182.76 444.71 182.76 444.71 183.82C444.68 184.03 444.7 184.25 444.77 184.45C444.83 184.65 444.95 184.84 445.1 184.99C445.25 185.14 445.44 185.27 445.64 185.33C445.84 185.39 446.07 185.42 446.27 185.38C447.33 185.38 449.95 184.34 449.95 180.2C449.96 179.33 449.8 178.46 449.46 177.65C449.12 176.84 448.6 176.12 447.96 175.53C447.32 174.94 446.56 174.48 445.72 174.2C444.9 173.92 444.01 173.82 443.14 173.9C441.99 173.9 440.87 174.14 439.8 174.59C438.75 175.04 437.8 175.71 437.02 176.55C436.22 177.38 435.62 178.37 435.23 179.46C434.85 180.53 434.67 181.68 434.75 182.83C430.64 179.44 426.79 175.76 423.21 171.81L406.43 153.44C401.72 148.26 404.33 138.23 411.14 138.23C411.8 138.18 412.45 138.27 413.07 138.48C413.69 138.69 414.26 139.04 414.74 139.48C415.22 139.92 415.61 140.47 415.88 141.06C416.16 141.65 416.3 142.31 416.31 142.97C416.31 147.68 411.58 145.57 411.58 148.15C411.58 148.42 411.63 148.69 411.73 148.93C411.84 149.18 412 149.41 412.2 149.59C412.4 149.78 412.64 149.92 412.91 149.99C413.16 150.08 413.44 150.1 413.71 150.08C414.72 150.09 415.73 149.89 416.67 149.49C417.59 149.1 418.44 148.5 419.12 147.77C419.82 147.02 420.35 146.15 420.67 145.19C421.01 144.23 421.14 143.21 421.05 142.2C420.91 139.7 419.79 137.36 417.92 135.68C416.05 134.01 413.6 133.15 411.1 133.29C404.2 133.29 399.58 138.47 399.58 145.9L394.32 140.11C371.26 114.92 352.39 103.85 333.98 103.85C328.04 103.76 322.22 105.4 317.2 108.59C305.16 116.77 310.6 131.53 310.6 131.53C310.61 131.5 310.63 131.47 310.64 131.44C311.73 134.24 313.56 136.7 315.93 138.54C317.06 139.39 319.44 140.58 320.81 140.92C322.41 141.43 324.08 141.67 325.78 141.67C334.68 141.67 337.85 136.49 337.85 132.75C337.85 129.6 335.74 126.98 333.65 126.98C333.13 126.98 332.6 127.52 333.65 128.57C333.99 128.91 334.27 129.32 334.45 129.76C334.63 130.21 334.67 130.69 334.69 131.17C334.93 138.21 324.21 138.21 320.2 135.48C317.11 133.38 313.78 129.09 313.78 123.3C313.78 115.43 320.59 108.61 334.23 108.61C349.95 108.61 366.21 115.43 391.38 143.24L420.2 174.74C425.66 181.02 431.83 186.67 438.56 191.54C442.76 194.7 446.42 196.72 450.63 199.42C446.22 202.02 442.16 205.19 438.56 208.84C438.07 205.73 436.47 202.9 434.06 200.88C431.65 198.85 428.59 197.76 425.44 197.81C423.08 197.85 420.78 198.5 418.76 199.72C416.74 200.93 415.06 202.66 413.91 204.72C413.56 205.71 412.92 206.59 412.09 207.23C411.26 207.89 410.26 208.28 409.21 208.39C408.86 208.4 408.5 208.35 408.17 208.23C407.84 208.1 407.55 207.91 407.3 207.66C407.05 207.41 406.86 207.12 406.73 206.78C406.62 206.45 406.57 206.11 406.58 205.76C406.58 204.72 406.05 203.66 405.01 203.66C403.43 203.66 402.91 205.24 402.91 206.29C402.87 207.12 403.01 207.96 403.31 208.74C403.61 209.52 404.08 210.23 404.67 210.82C405.25 211.41 405.96 211.87 406.74 212.17C407.52 212.49 408.36 212.62 409.19 212.59C410.48 212.55 411.74 212.19 412.85 211.53C413.19 213.78 414.33 215.83 416.07 217.28C417.81 218.72 420.02 219.49 422.29 219.42C424.39 219.42 425.95 218.9 425.95 217.32C425.95 215.74 424.9 215.75 423.33 215.75C422.55 215.84 421.75 215.76 421.02 215.5C420.27 215.25 419.59 214.83 419.04 214.26C418.5 213.7 418.07 213.03 417.81 212.29C417.56 211.54 417.47 210.75 417.57 209.97C417.65 207.96 418.51 206.05 419.98 204.68C421.45 203.3 423.4 202.56 425.41 202.62C430.67 202.62 434.34 206.3 434.34 212.6C434.34 215.76 432.75 218.36 432.75 222.56C432.75 228.86 435.91 234.12 441.15 235.69C415.98 246.71 403.92 268.75 403.92 288.71C403.92 307.05 410.21 321.75 425.4 335.92L437.47 347.47C451.62 360.6 464.21 375.26 464.21 396.79C464.21 418.32 447.96 434.59 426.45 434.59H426.26C407.91 434.59 395.87 424.09 395.87 408.35C395.87 395.22 404.78 384.72 415.27 384.72C419.45 384.72 423.13 386.3 423.13 390.49C423.13 393.11 422.08 395.22 424.7 395.22C426.27 395.22 427.86 393.65 427.86 389.43C427.86 384.25 423.13 379.99 416.32 379.99H414.73C415.45 378.51 415.8 376.89 415.79 375.25C415.82 374.29 415.64 373.32 415.27 372.42C414.92 371.52 414.37 370.7 413.69 370.02C413.01 369.33 412.19 368.79 411.29 368.43C410.39 368.08 409.42 367.9 408.46 367.92C404.78 367.92 401.12 370.02 401.12 372.65C401.08 372.86 401.11 373.08 401.17 373.28C401.25 373.48 401.36 373.67 401.51 373.82C401.66 373.97 401.85 374.09 402.05 374.15C402.25 374.21 402.47 374.24 402.68 374.2C404.25 374.2 404.78 372.65 407.41 372.65C407.9 372.59 408.4 372.65 408.86 372.81C409.34 372.97 409.76 373.24 410.11 373.59C410.46 373.94 410.73 374.36 410.89 374.84C411.05 375.31 411.11 375.81 411.05 376.31C411.05 379.99 407.9 381.49 405.29 383.13C400.92 385.69 397.3 389.38 394.81 393.82C392.32 398.24 391.06 403.26 391.13 408.34C391.13 423.03 399.52 432.51 411.58 436.66L403.72 448.75C393.23 448.75 387.98 456.63 378.55 473.41C378.12 471.26 376.92 469.34 375.2 467.99C373.47 466.64 371.31 465.96 369.12 466.06C363.35 466.06 359.67 470.25 359.67 476.04C359.61 476.67 359.8 477.29 360.19 477.78C360.58 478.26 361.15 478.58 361.77 478.65C362.12 478.68 362.48 478.61 362.81 478.5C363.13 478.37 363.43 478.18 363.68 477.93C363.92 477.69 364.11 477.39 364.24 477.07C364.37 476.74 364.42 476.39 364.4 476.03C364.35 475.37 364.44 474.72 364.65 474.1C364.86 473.48 365.19 472.91 365.64 472.42C366.08 471.94 366.63 471.55 367.22 471.28C367.83 471.01 368.47 470.86 369.13 470.86C372.79 470.86 374.3 473.48 374.3 476.62C374.41 480.21 373.3 483.72 371.14 486.6C360.15 504.43 344.93 513.36 331.84 513.36C320.28 513.36 313.48 506.54 313.48 499.72C313.48 493.42 317.14 488.17 323.44 488.17C327.64 488.17 330.25 490.8 330.25 494.45C330.25 497.61 327.63 497.61 327.63 499.19C327.63 500.24 328.68 500.76 329.73 500.76C332.89 500.76 334.9 497.11 334.9 493.42C334.9 487.65 330.19 483.44 323.38 483.44C320.61 483.44 318.12 484.62 315.58 485.71C309.88 488.17 308.17 495.71 308.69 500.08C309.22 504.52 309.88 507.22 313.45 510.79C315.49 512.83 319.29 515.01 321.59 515.9C317.28 520.85 310.57 532.11 310.56 532.08L307.5 536.97C307.5 536.97 306.31 539.35 307.5 540.54C308.69 541.73 310.09 540.58 310.56 540.06C312.26 538.16 319.42 523.51 325.57 517.36C327.64 517.79 329.75 517.97 331.86 517.88C346.53 517.88 364.36 506.86 375.38 487.98L382.19 476.43C389 464.9 393.73 453.34 403.68 453.34C408.86 453.34 412.6 456.51 412.6 460.68C412.61 461.67 412.45 462.63 412.08 463.52C411.73 464.43 411.18 465.25 410.5 465.93C409.8 466.62 408.98 467.17 408.09 467.52C407.19 467.89 406.22 468.06 405.25 468.04C401.59 468.04 401.59 466.46 400.08 466.46C399.8 466.43 399.51 466.46 399.25 466.56C398.98 466.66 398.74 466.81 398.54 467.01C398.34 467.2 398.19 467.44 398.09 467.7C397.99 467.98 397.95 468.26 397.99 468.53C397.99 470.64 401.14 472.75 405.33 472.75C406.92 472.78 408.5 472.48 409.98 471.88C411.46 471.29 412.8 470.4 413.92 469.26C415.04 468.14 415.93 466.8 416.52 465.32C417.13 463.84 417.42 462.25 417.39 460.66C417.3 458.07 416.39 455.56 414.8 453.5C413.2 451.45 411 449.96 408.49 449.24L415.82 438.21C419.28 438.82 422.78 439.16 426.3 439.26C450.44 439.26 468.78 421.41 468.78 396.75C468.87 393.95 468.69 391.14 468.26 388.36C467.21 382.59 468.26 378.92 472.46 378.92C472.98 378.86 473.51 378.89 474 379.05C474.51 379.21 474.97 379.47 475.36 379.81C475.75 380.16 476.08 380.58 476.3 381.06C476.53 381.54 476.64 382.06 476.64 382.59C476.64 384.16 475.59 386.27 477.69 386.27C480.32 386.27 480.32 383.11 480.32 382.08C480.32 377.34 477.69 374.18 472.46 374.18L472.53 374.21ZM483.56 283.97H483.47C478.77 278.17 476.14 275.54 476.14 273.46C476.14 271.38 477.71 268.28 479.27 264.53L495 229.9C499.73 219.4 503.91 210.48 503.91 199.48C503.91 191.6 500.78 183.73 492.92 176.9L470.36 157.47C469.46 156.72 468.86 155.68 468.67 154.53C468.48 153.37 468.71 152.18 469.31 151.18L477.7 132.29C478.03 131.66 478.1 130.93 477.9 130.24C477.71 129.56 477.27 128.98 476.65 128.62C450.96 111.35 421.61 100.79 393.81 92.92C366.1 85.6 329 75.14 310.61 61.02V77.33C326.86 87.78 353.03 94.54 382.33 102.45C413.25 110.86 434.24 117.14 460.45 133.43C462.02 134.47 462.02 136.06 460.96 138.16L452.58 155.43C452.29 156.02 452.18 156.69 452.28 157.35C452.37 158.01 452.67 158.63 453.13 159.11L479.25 182.7C485.54 187.88 490.24 193.19 490.24 200.55C490.24 209.47 486.06 217.81 481.86 226.77L463.55 266.67C462.5 268.77 460.39 272.97 460.39 275.07C460.39 277.17 462.5 279.78 464.59 282.42C492.92 313.9 502.35 340.13 502.35 369.53C502.35 404.06 488.2 434.61 458.83 464.49L458.88 464.52C435.82 488.13 401.74 504.92 369.24 520.68C347.77 531.15 326.86 541.63 310.62 554.18V571.01C331.57 554.23 354.09 543.75 375.56 533.26C408.06 517.52 444.25 500.2 469.41 473.98C494.58 448.23 516.59 414.13 516.59 369.54C516.59 337.51 507.16 313.38 483.56 284V283.97Z" fill="white"/>
<path d="M375.43 291.77C375.43 297.03 371.17 301.29 365.9 301.29C360.63 301.29 356.37 297.03 356.37 291.77C356.37 291.57 356.38 291.37 356.39 291.17L328.98 272.89V203.58C326.13 201.95 324.22 198.87 324.22 195.34C324.22 190.08 328.48 185.82 333.75 185.82C339.02 185.82 343.28 190.08 343.28 195.34C343.28 198.86 341.36 201.95 338.52 203.58V267.79L361.67 283.24C362.94 282.6 364.38 282.24 365.91 282.24C371.17 282.24 375.44 286.5 375.44 291.76L375.43 291.77Z" fill="white"/>
<path d="M346.76 454.86C346.76 460.12 342.5 464.38 337.23 464.38C331.96 464.38 327.7 460.12 327.7 454.86C327.7 451.34 329.62 448.25 332.46 446.62V417.86C329.61 416.23 327.7 413.15 327.7 409.62C327.7 404.36 331.96 400.1 337.23 400.1C342.5 400.1 346.76 404.36 346.76 409.62C346.76 413.14 344.84 416.23 342 417.86V446.62C344.85 448.25 346.76 451.33 346.76 454.86Z" fill="white"/>
<path d="M338.52 357.25C338.52 362.51 334.26 366.77 328.99 366.77C323.72 366.77 319.46 362.51 319.46 357.25C319.46 357.05 319.47 356.85 319.48 356.64L289.62 338.33V275.89C289.62 273.26 291.75 271.13 294.38 271.13C297.01 271.13 299.14 273.26 299.14 275.89V332.99L324.76 348.7C326.03 348.07 327.46 347.71 328.97 347.71C334.23 347.71 338.5 351.97 338.5 357.23L338.52 357.25Z" fill="white"/>
<path d="M718.22 151.47L591.66 480.52H614.36L740.7 151.47H718.22ZM1042.46 350.24C1033.17 339.44 1021.1 332.64 1006.25 329.86C1019.3 326.1 1029.42 319.45 1036.64 309.88C1043.87 300.16 1047.48 289 1047.48 276.39C1047.48 254.86 1039.71 238.78 1024.17 228.08C1008.59 217.42 986.84 212.07 958.79 212.07H847.41V230.39L881.34 233.06V433.7L847.41 436.41V454.51H973.14C998.84 454.51 1019.07 448.84 1033.93 437.46C1048.93 426.08 1056.41 409.49 1056.41 387.71C1056.41 373.58 1051.78 361.08 1042.46 350.24ZM958.79 234.54C980.15 234.54 996.12 237.94 1006.67 244.73C1017.22 251.38 1022.5 262.15 1022.5 277C1022.5 291.85 1017.26 302.47 1006.85 310.1C996.59 317.58 981.63 321.48 961.89 321.73H906.31V234.54H958.79ZM1016.26 421.85C1006.1 429.91 991.76 433.92 973.15 433.92H906.33V341.31H973.15C991.62 341.31 1005.93 345.54 1016.05 353.99C1026.31 362.44 1031.45 373.57 1031.45 387.3C1031.45 402.29 1026.39 413.78 1016.27 421.84L1016.26 421.85ZM1869.47 209.43V454.51H1936.8V209.43H1869.47ZM2231.04 212.07V230.39L2264.97 233.06V413.54L2263.71 413.94L2117.56 212.07H2058.65V230.39L2092.58 233.06V433.7L2058.65 436.41V454.51H2151.49V436.41L2117.56 433.7V252.86L2118.82 252.64L2264.97 454.51H2289.73V233.06L2323.66 230.39V212.07H2231.04Z" fill="white"/>
<path d="M1653.17 218.09H1586.67L1476.66 463.17H1541.89L1562.34 414.61H1676.9L1697.07 463.17H1763.6L1653.16 218.09H1653.17ZM1582.81 366.01L1620.07 277.56L1656.75 366.01H1582.81Z" fill="white"/>
<path d="M1368.18 443.19L1329.15 353.33C1334.03 352.14 1338.58 350.58 1342.77 348.71C1355.27 343.04 1364.63 335.2 1370.89 325.19C1377.29 315.07 1380.47 303.29 1380.47 289.82C1380.47 274.97 1377.22 262.43 1370.68 252.17C1364.18 241.87 1354.67 234.1 1342.17 228.83C1329.67 223.45 1314.34 220.74 1296.16 220.74H1172.71V239.06L1206.64 241.73V442.37L1172.71 445.08V463.18H1265.55V445.08L1231.62 442.37V357.06H1296.16C1299.23 357.06 1302.23 356.99 1305.12 356.81L1350.08 463.18H1393.16V445.08L1368.19 443.2L1368.18 443.19ZM1231.61 241.54H1296.15C1316.82 241.54 1331.89 245.7 1341.32 254.01C1350.75 262.21 1355.49 274.14 1355.49 289.82C1355.49 305.5 1350.76 316.67 1341.32 324.58C1332.03 332.35 1316.96 336.25 1296.15 336.25H1231.61V241.54Z" fill="white"/>
</svg>
