<svg width="900" height="900" viewBox="0 0 900 900" fill="none" xmlns="http://www.w3.org/2000/svg">
<path d="M464.11 301.137C462.83 301.137 461.55 300.647 460.57 299.667L441.79 280.887V99.3972C441.79 96.6372 444.03 94.3872 446.8 94.3872C449.57 94.3872 451.81 96.6272 451.81 99.3972V276.737L467.66 292.587C469.62 294.547 469.62 297.717 467.66 299.667C466.68 300.647 465.4 301.137 464.12 301.137H464.11Z" fill="#00003C"/>
<path d="M451.8 444.487V618.337L302.82 550.737V487.967L213.93 441.267V263.387C213.93 260.617 216.17 258.377 218.94 258.377C221.71 258.377 223.95 260.617 223.95 263.387V435.217L302.82 476.647V429.587L260.25 406.697V371.647C260.25 368.877 262.49 366.637 265.26 366.637C268.03 366.637 270.27 368.877 270.27 371.647V400.707L302.82 418.207V356.507L260.25 333.977V193.287C260.25 190.517 262.49 188.277 265.26 188.277C268.03 188.277 270.27 190.517 270.27 193.287V327.957L302.82 345.177V151.977C302.82 149.207 305.06 146.967 307.83 146.967C310.6 146.967 312.84 149.207 312.84 151.977V281.017L350.4 253.347V125.647C350.4 122.877 352.64 120.637 355.41 120.637C358.18 120.637 360.42 122.877 360.42 125.647V258.397L312.85 293.447V544.287L441.8 602.787V543.317L350.41 504.397V325.997L390.47 295.077V105.667C390.47 102.897 392.71 100.657 395.48 100.657C398.25 100.657 400.49 102.897 400.49 105.667V300.007L360.43 330.927V497.787L441.81 532.437V486.767L391.73 461.737V351.017C391.73 348.247 393.97 346.007 396.74 346.007C399.51 346.007 401.75 348.247 401.75 351.017V455.557L441.81 475.587V444.507C441.81 441.737 444.05 439.497 446.82 439.497C449.59 439.497 451.83 441.737 451.83 444.507L451.8 444.487Z" fill="#00003C"/>
<path d="M634.73 418.697L634.88 418.737C633.43 418.657 631.98 418.977 630.71 419.667C629.43 420.347 628.37 421.367 627.63 422.617C623.22 412.697 618.82 403.307 599.52 385.647C602.02 386.407 604.62 386.777 607.24 386.747C613.31 386.747 619.93 385.077 623.77 381.297C624.27 383.087 625.36 384.667 626.87 385.777C628.37 386.877 630.2 387.437 632.06 387.387C638.11 387.387 640.32 383.517 640.32 379.107C640.32 377.437 639.76 375.787 638.1 375.787C634.8 375.787 637.57 382.407 632.05 382.407C631.49 382.407 630.95 382.287 630.44 382.047C629.94 381.817 629.48 381.477 629.12 381.067C628.76 380.637 628.48 380.147 628.32 379.617C628.16 379.087 628.11 378.527 628.17 377.987C628.17 375.247 629.82 371.917 629.82 368.047C630.01 364.317 628.89 360.637 626.68 357.637C624.47 354.617 621.3 352.457 617.7 351.497C616.03 351.177 614.51 350.287 613.41 348.987C612.31 347.667 611.68 346.037 611.64 344.327C611.64 339.917 614.94 339.377 617.07 339.377C619.2 339.377 620.94 339.917 620.94 338.277C620.94 336.637 619.29 335.517 615.98 335.517C612.13 335.517 606.61 338.277 606.61 344.337C606.57 345.577 606.8 346.807 607.27 347.947C607.75 349.087 608.45 350.127 609.36 350.967C606.76 351.417 604.39 352.777 602.68 354.797C600.97 356.817 600.01 359.377 600 362.027C600 365.877 601.09 369.727 603.87 369.727C607.17 369.727 604.4 366.967 604.4 362.557C604.4 357.607 608.81 355.407 613.24 355.407C619.3 355.407 624.8 360.857 624.8 368.107C624.8 376.387 618.18 381.907 607.71 381.907C603.54 382.097 599.39 381.337 595.55 379.687C591.72 378.037 588.32 375.547 585.59 372.397C574 359.687 567.47 348.667 567.47 328.827C567.47 303.417 585.59 281.347 612.11 274.187C614.98 273.347 617.5 271.607 619.3 269.217C621.08 266.827 622.05 263.917 622.04 260.927C622.04 255.477 618.73 251.017 613.23 251.017C611.01 251.017 609.36 251.547 609.36 253.207C609.36 254.867 611.01 254.867 612.11 254.867C613.57 255.027 614.9 255.757 615.82 256.887C616.75 258.017 617.19 259.467 617.07 260.927C617.07 262.137 616.82 263.327 616.34 264.437C615.86 265.557 615.17 266.547 614.29 267.377C613.4 268.217 612.36 268.847 611.23 269.267C610.1 269.677 608.89 269.847 607.68 269.787C601.63 269.787 597.77 265.377 597.77 259.297C597.77 247.717 611.56 239.977 622.03 235.037C612.65 230.617 609.34 228.957 602.18 223.437C601.45 222.737 600.86 221.887 600.49 220.957C600.1 220.017 599.93 219.007 599.98 217.997C599.98 215.237 601.63 213.017 603.83 213.017C604.2 213.007 604.56 213.057 604.91 213.187C605.26 213.317 605.57 213.517 605.83 213.787C606.1 214.037 606.29 214.357 606.43 214.707C606.56 215.057 606.62 215.407 606.6 215.787C606.6 217.437 605.48 217.437 605.48 218.547C605.45 218.777 605.47 218.997 605.55 219.207C605.62 219.417 605.74 219.617 605.9 219.777C606.06 219.937 606.26 220.067 606.47 220.137C606.68 220.207 606.92 220.227 607.13 220.187C608.25 220.187 611 219.097 611 214.737C611.01 213.817 610.84 212.907 610.48 212.057C610.12 211.207 609.58 210.447 608.9 209.827C608.22 209.207 607.43 208.727 606.55 208.437C605.69 208.147 604.76 208.037 603.84 208.117C602.63 208.117 601.45 208.367 600.33 208.847C599.23 209.327 598.23 210.027 597.41 210.907C596.57 211.787 595.94 212.817 595.52 213.967C595.12 215.097 594.94 216.307 595.02 217.517C590.7 213.957 586.65 210.077 582.89 205.937L565.25 186.617C560.29 181.167 563.04 170.627 570.21 170.627C570.9 170.577 571.59 170.667 572.24 170.897C572.89 171.127 573.49 171.477 573.99 171.947C574.5 172.407 574.91 172.987 575.19 173.607C575.48 174.227 575.63 174.927 575.64 175.617C575.64 180.567 570.67 178.357 570.67 181.067C570.67 181.347 570.72 181.637 570.83 181.887C570.95 182.157 571.11 182.387 571.32 182.577C571.53 182.777 571.79 182.927 572.06 183.007C572.33 183.097 572.62 183.127 572.9 183.097C573.96 183.107 575.03 182.897 576.01 182.477C576.98 182.067 577.87 181.437 578.59 180.667C579.32 179.887 579.88 178.967 580.22 177.957C580.58 176.947 580.71 175.867 580.62 174.807C580.47 172.177 579.29 169.717 577.32 167.957C575.35 166.207 572.78 165.297 570.15 165.447C562.9 165.447 558.03 170.897 558.03 178.707L552.5 172.627C528.25 146.137 508.42 134.497 489.06 134.497C482.82 134.407 476.69 136.127 471.42 139.477C458.76 148.087 464.48 163.597 464.48 163.597C464.49 163.567 464.51 163.527 464.52 163.507C465.66 166.457 467.59 169.037 470.09 170.977C471.28 171.867 473.78 173.117 475.22 173.477C476.91 174.007 478.66 174.257 480.44 174.257C489.79 174.257 493.13 168.807 493.13 164.877C493.13 161.567 490.91 158.807 488.72 158.807C488.18 158.807 487.62 159.377 488.72 160.477C489.08 160.837 489.37 161.257 489.56 161.727C489.75 162.207 489.8 162.707 489.81 163.217C490.06 170.617 478.79 170.617 474.57 167.747C471.32 165.547 467.82 161.027 467.82 154.937C467.82 146.657 474.98 139.487 489.32 139.487C505.85 139.487 522.95 146.657 549.42 175.897L579.73 209.017C585.47 215.617 591.95 221.557 599.04 226.687C603.45 230.007 607.3 232.137 611.73 234.977C607.09 237.717 602.83 241.047 599.04 244.887C598.52 241.617 596.85 238.647 594.31 236.517C591.77 234.377 588.56 233.237 585.25 233.287C582.77 233.327 580.35 234.017 578.22 235.297C576.09 236.577 574.33 238.397 573.12 240.557C572.75 241.597 572.08 242.527 571.21 243.197C570.33 243.887 569.28 244.297 568.18 244.417C567.81 244.427 567.44 244.377 567.09 244.247C566.74 244.117 566.44 243.917 566.17 243.647C565.9 243.377 565.7 243.077 565.57 242.717C565.45 242.367 565.4 242.017 565.41 241.637C565.41 240.547 564.85 239.427 563.76 239.427C562.1 239.427 561.55 241.087 561.55 242.187C561.51 243.067 561.66 243.937 561.98 244.767C562.3 245.587 562.79 246.337 563.41 246.957C564.02 247.577 564.77 248.057 565.59 248.377C566.41 248.707 567.29 248.857 568.17 248.817C569.53 248.777 570.85 248.387 572.02 247.697C572.38 250.057 573.57 252.217 575.41 253.737C577.24 255.247 579.57 256.057 581.95 255.987C584.16 255.987 585.8 255.447 585.8 253.777C585.8 252.107 584.7 252.127 583.05 252.127C582.23 252.217 581.39 252.137 580.62 251.857C579.84 251.587 579.12 251.157 578.53 250.557C577.96 249.977 577.51 249.267 577.24 248.487C576.97 247.707 576.88 246.867 576.99 246.047C577.07 243.937 577.97 241.927 579.53 240.477C581.07 239.027 583.13 238.247 585.24 238.307C590.77 238.307 594.63 242.177 594.63 248.797C594.63 252.117 592.96 254.857 592.96 259.267C592.96 265.897 596.28 271.417 601.8 273.067C575.33 284.647 562.66 307.827 562.66 328.817C562.66 348.107 569.28 363.557 585.25 378.457L597.94 390.597C612.82 404.397 626.05 419.817 626.05 442.457C626.05 465.097 608.96 482.207 586.35 482.207H586.15C566.86 482.207 554.2 471.167 554.2 454.617C554.2 440.817 563.57 429.777 574.59 429.777C578.99 429.777 582.85 431.437 582.85 435.847C582.85 438.597 581.75 440.817 584.5 440.817C586.15 440.817 587.82 439.167 587.82 434.737C587.82 429.287 582.85 424.817 575.69 424.817H574.02C574.78 423.267 575.15 421.567 575.14 419.837C575.17 418.827 574.98 417.807 574.6 416.857C574.23 415.917 573.66 415.047 572.94 414.337C572.22 413.607 571.36 413.047 570.42 412.667C569.48 412.297 568.45 412.107 567.44 412.137C563.57 412.137 559.72 414.347 559.72 417.107C559.68 417.337 559.71 417.557 559.77 417.767C559.85 417.977 559.97 418.177 560.13 418.337C560.29 418.497 560.49 418.617 560.7 418.687C560.91 418.757 561.14 418.777 561.36 418.737C563.01 418.737 563.57 417.107 566.33 417.107C566.85 417.037 567.37 417.107 567.86 417.277C568.36 417.447 568.8 417.727 569.18 418.097C569.55 418.467 569.83 418.907 570 419.417C570.17 419.907 570.23 420.437 570.17 420.957C570.17 424.827 566.86 426.407 564.11 428.127C559.51 430.827 555.71 434.707 553.1 439.367C550.48 444.017 549.15 449.287 549.23 454.627C549.23 470.077 558.05 480.037 570.73 484.407L562.47 497.117C551.44 497.117 545.91 505.407 536 523.047C535.55 520.787 534.29 518.767 532.48 517.347C530.66 515.927 528.39 515.207 526.09 515.317C520.02 515.317 516.15 519.727 516.15 525.807C516.08 526.467 516.28 527.127 516.69 527.637C517.1 528.137 517.7 528.477 518.35 528.557C518.72 528.587 519.09 528.517 519.44 528.397C519.77 528.267 520.09 528.067 520.36 527.797C520.61 527.547 520.81 527.227 520.94 526.897C521.07 526.547 521.13 526.177 521.11 525.807C521.06 525.117 521.15 524.427 521.38 523.777C521.61 523.127 521.95 522.527 522.42 522.007C522.88 521.507 523.46 521.087 524.08 520.807C524.72 520.527 525.4 520.367 526.09 520.367C529.94 520.367 531.52 523.117 531.52 526.427C531.64 530.197 530.47 533.897 528.2 536.917C516.64 555.657 500.64 565.057 486.88 565.057C474.72 565.057 467.57 557.887 467.57 550.707C467.57 544.077 471.42 538.567 478.04 538.567C482.45 538.567 485.2 541.327 485.2 545.167C485.2 548.487 482.45 548.487 482.45 550.147C482.45 551.247 483.55 551.797 484.66 551.797C487.98 551.797 490.09 547.957 490.09 544.077C490.09 538.007 485.13 533.587 477.97 533.587C475.06 533.587 472.44 534.827 469.77 535.977C463.78 538.567 461.98 546.497 462.53 551.087C463.09 555.747 463.78 558.597 467.54 562.357C469.68 564.497 473.68 566.787 476.1 567.737C471.57 572.947 464.51 584.777 464.5 584.757L461.28 589.897C461.28 589.897 460.03 592.397 461.28 593.657C462.53 594.907 464.01 593.697 464.5 593.157C466.29 591.157 473.81 575.757 480.28 569.287C482.46 569.737 484.68 569.927 486.9 569.827C502.33 569.827 521.07 558.247 532.66 538.387L539.82 526.247C546.98 514.117 551.95 501.967 562.42 501.967C567.87 501.967 571.8 505.297 571.8 509.687C571.81 510.727 571.64 511.737 571.26 512.677C570.89 513.637 570.32 514.497 569.6 515.217C568.87 515.947 568.01 516.517 567.06 516.887C566.12 517.277 565.09 517.457 564.07 517.427C560.22 517.427 560.22 515.767 558.64 515.767C558.35 515.737 558.04 515.767 557.76 515.877C557.48 515.987 557.23 516.147 557.02 516.357C556.81 516.557 556.65 516.807 556.54 517.087C556.43 517.377 556.39 517.667 556.43 517.967C556.43 520.187 559.74 522.407 564.15 522.407C565.82 522.437 567.48 522.127 569.04 521.487C570.59 520.867 572 519.937 573.19 518.737C574.37 517.557 575.3 516.147 575.93 514.597C576.57 513.047 576.87 511.367 576.85 509.697C576.76 506.977 575.8 504.327 574.13 502.167C572.44 500.017 570.13 498.447 567.5 497.687L575.21 486.087C578.85 486.727 582.53 487.087 586.22 487.187C611.6 487.187 630.89 468.417 630.89 442.487C630.98 439.537 630.8 436.587 630.35 433.667C629.25 427.597 630.35 423.747 634.76 423.747C635.3 423.677 635.86 423.717 636.38 423.877C636.91 424.047 637.4 424.317 637.81 424.677C638.22 425.047 638.57 425.487 638.79 425.997C639.03 426.497 639.15 427.047 639.15 427.607C639.15 429.257 638.05 431.477 640.25 431.477C643.01 431.477 643.01 428.157 643.01 427.067C643.01 422.087 640.25 418.767 634.75 418.767L634.73 418.697ZM646.33 323.807H646.24C641.3 317.707 638.53 314.947 638.53 312.757C638.53 310.567 640.18 307.307 641.83 303.367L658.37 266.957C663.34 255.917 667.74 246.537 667.74 234.967C667.74 226.677 664.44 218.397 656.18 211.227L632.46 190.797C631.52 190.017 630.88 188.907 630.68 187.697C630.48 186.477 630.72 185.227 631.36 184.177L640.18 164.317C640.53 163.657 640.61 162.887 640.39 162.167C640.19 161.447 639.73 160.837 639.07 160.467C612.06 142.307 581.19 131.207 551.96 122.927C522.82 115.237 483.81 104.237 464.48 89.3872V106.537C481.57 117.527 509.08 124.627 539.89 132.947C572.4 141.797 594.47 148.397 622.03 165.517C623.68 166.607 623.68 168.277 622.56 170.487L613.75 188.647C613.44 189.267 613.32 189.977 613.43 190.667C613.52 191.357 613.84 192.007 614.32 192.517L641.78 217.317C648.4 222.767 653.34 228.347 653.34 236.087C653.34 245.467 648.94 254.237 644.53 263.647L625.28 305.597C624.18 307.807 621.96 312.227 621.96 314.427C621.96 316.627 624.18 319.387 626.37 322.157C656.16 355.257 666.07 382.837 666.07 413.747C666.07 450.057 651.19 482.177 620.31 513.587L620.36 513.617C596.11 538.447 560.28 556.097 526.1 572.667C503.53 583.677 481.54 594.687 464.46 607.897V625.587C486.49 607.947 510.17 596.917 532.74 585.897C566.91 569.347 604.97 551.137 631.42 523.567C657.89 496.497 681.03 460.637 681.03 413.747C681.03 380.067 671.12 354.697 646.3 323.797L646.33 323.807Z" fill="#00003C"/>
<path d="M532.63 332.017C532.63 337.547 528.15 342.027 522.61 342.027C517.07 342.027 512.59 337.547 512.59 332.017C512.59 331.807 512.6 331.587 512.62 331.387L483.8 312.157V239.287C480.81 237.577 478.79 234.327 478.79 230.627C478.79 225.097 483.27 220.617 488.81 220.617C494.35 220.617 498.83 225.097 498.83 230.627C498.83 234.337 496.81 237.577 493.82 239.287V306.807L518.16 323.057C519.5 322.377 521.01 322.007 522.62 322.007C528.15 322.007 532.64 326.487 532.64 332.017H532.63Z" fill="#00003C"/>
<path d="M502.48 503.497C502.48 509.027 498 513.507 492.46 513.507C486.92 513.507 482.44 509.027 482.44 503.497C482.44 499.787 484.46 496.547 487.45 494.837V464.597C484.46 462.887 482.44 459.637 482.44 455.937C482.44 450.407 486.92 445.927 492.46 445.927C498 445.927 502.48 450.407 502.48 455.937C502.48 459.647 500.46 462.887 497.47 464.597V494.837C500.46 496.547 502.48 499.797 502.48 503.497Z" fill="#00003C"/>
<path d="M493.82 400.867C493.82 406.397 489.34 410.877 483.8 410.877C478.26 410.877 473.78 406.397 473.78 400.867C473.78 400.657 473.79 400.437 473.81 400.227L442.41 380.977V315.327C442.41 312.557 444.65 310.317 447.42 310.317C450.19 310.317 452.43 312.557 452.43 315.327V375.367L479.37 391.887C480.71 391.227 482.21 390.847 483.8 390.847C489.33 390.847 493.82 395.327 493.82 400.857V400.867Z" fill="#00003C"/>
<path d="M193.84 635.397L150 749.387H157.86L201.63 635.397H193.84ZM306.17 704.247C302.95 700.507 298.77 698.147 293.63 697.187C298.15 695.887 301.65 693.587 304.16 690.267C306.66 686.897 307.92 683.037 307.92 678.667C307.92 671.207 305.23 665.637 299.85 661.927C294.45 658.237 286.92 656.387 277.2 656.387H238.62V662.737L250.38 663.667V733.177L238.62 734.117V740.387H282.17C291.07 740.387 298.08 738.417 303.23 734.477C308.43 730.537 311.02 724.787 311.02 717.237C311.02 712.347 309.42 708.017 306.19 704.257L306.17 704.247ZM259.01 664.167H277.19C284.59 664.167 290.12 665.347 293.78 667.697C297.44 669.997 299.26 673.727 299.26 678.877C299.26 684.027 297.44 687.697 293.84 690.347C290.28 692.937 285.1 694.287 278.27 694.377H259.02V664.177L259.01 664.167ZM297.09 729.057C293.57 731.847 288.6 733.237 282.15 733.237H259V701.157H282.15C288.55 701.157 293.51 702.617 297.01 705.547C300.57 708.477 302.34 712.327 302.34 717.087C302.34 722.277 300.59 726.257 297.08 729.057H297.09ZM592.66 655.477V740.377H615.98V655.477H592.66ZM717.91 656.387V662.737L729.67 663.667V726.187L729.23 726.327L678.6 656.397H658.19V662.747L669.95 663.677V733.187L658.19 734.127V740.397H690.35V734.127L678.59 733.187V670.537L679.03 670.457L729.66 740.387H738.24V663.667L750 662.737V656.387H717.91Z" fill="#00003C"/>
<path d="M494.69 658.477L456.58 743.377H479.18L486.27 726.557H525.96L532.95 743.377H556L517.74 658.477H494.69ZM493.35 709.717L506.26 679.077L518.97 709.717H493.35Z" fill="#00003C"/>
<path d="M419 736.457L405.48 705.327C407.17 704.917 408.75 704.377 410.2 703.727C414.53 701.757 417.77 699.047 419.94 695.577C422.16 692.077 423.26 687.987 423.26 683.327C423.26 678.187 422.13 673.837 419.87 670.287C417.62 666.717 414.32 664.027 409.99 662.197C405.66 660.327 400.35 659.397 394.05 659.397H351.28V665.747L363.04 666.677V736.187L351.28 737.127V743.397H383.44V737.127L371.68 736.187V706.637H394.04C395.1 706.637 396.14 706.607 397.14 706.547L412.71 743.397H427.63V737.127L418.98 736.477L419 736.457ZM371.69 699.407V666.597H394.05C401.21 666.597 406.43 668.037 409.7 670.917C412.97 673.757 414.61 677.887 414.61 683.317C414.61 688.747 412.97 692.617 409.7 695.357C406.48 698.047 401.26 699.397 394.05 699.397H371.69V699.407Z" fill="#00003C"/>
</svg>
