<svg width="901" height="900" viewBox="0 0 901 900" fill="none" xmlns="http://www.w3.org/2000/svg">
<path d="M464.11 300.75C462.83 300.75 461.55 300.26 460.57 299.28L441.79 280.5V99.01C441.79 96.25 444.03 94 446.8 94C449.57 94 451.81 96.24 451.81 99.01V276.35L467.66 292.2C469.62 294.16 469.62 297.33 467.66 299.28C466.68 300.26 465.4 300.75 464.12 300.75H464.11Z" fill="white"/>
<path d="M451.8 444.1V617.95L302.82 550.35V487.58L213.93 440.88V263C213.93 260.23 216.17 257.99 218.94 257.99C221.71 257.99 223.95 260.23 223.95 263V434.83L302.82 476.26V429.2L260.25 406.31V371.26C260.25 368.49 262.49 366.25 265.26 366.25C268.03 366.25 270.27 368.49 270.27 371.26V400.32L302.82 417.82V356.12L260.25 333.59V192.9C260.25 190.13 262.49 187.89 265.26 187.89C268.03 187.89 270.27 190.13 270.27 192.9V327.57L302.82 344.79V151.59C302.82 148.82 305.06 146.58 307.83 146.58C310.6 146.58 312.84 148.82 312.84 151.59V280.63L350.4 252.96V125.26C350.4 122.49 352.64 120.25 355.41 120.25C358.18 120.25 360.42 122.49 360.42 125.26V258.01L312.85 293.06V543.9L441.8 602.4V542.93L350.41 504.01V325.61L390.47 294.69V105.28C390.47 102.51 392.71 100.27 395.48 100.27C398.25 100.27 400.49 102.51 400.49 105.28V299.62L360.43 330.54V497.4L441.81 532.05V486.38L391.73 461.35V350.63C391.73 347.86 393.97 345.62 396.74 345.62C399.51 345.62 401.75 347.86 401.75 350.63V455.17L441.81 475.2V444.12C441.81 441.35 444.05 439.11 446.82 439.11C449.59 439.11 451.83 441.35 451.83 444.12L451.8 444.1Z" fill="white"/>
<path d="M634.73 418.31L634.88 418.35C633.43 418.27 631.98 418.59 630.71 419.28C629.43 419.96 628.37 420.98 627.63 422.23C623.22 412.31 618.82 402.92 599.52 385.26C602.02 386.02 604.62 386.39 607.24 386.36C613.31 386.36 619.93 384.69 623.77 380.91C624.27 382.7 625.36 384.28 626.87 385.39C628.37 386.49 630.2 387.05 632.06 387C638.11 387 640.32 383.13 640.32 378.72C640.32 377.05 639.76 375.4 638.1 375.4C634.8 375.4 637.57 382.02 632.05 382.02C631.49 382.02 630.95 381.9 630.44 381.66C629.94 381.43 629.48 381.09 629.12 380.68C628.76 380.25 628.48 379.76 628.32 379.23C628.16 378.7 628.11 378.14 628.17 377.6C628.17 374.86 629.82 371.53 629.82 367.66C630.01 363.93 628.89 360.25 626.68 357.25C624.47 354.23 621.3 352.07 617.7 351.11C616.03 350.79 614.51 349.9 613.41 348.6C612.31 347.28 611.68 345.65 611.64 343.94C611.64 339.53 614.94 338.99 617.07 338.99C619.2 338.99 620.94 339.53 620.94 337.89C620.94 336.25 619.29 335.13 615.98 335.13C612.13 335.13 606.61 337.89 606.61 343.95C606.57 345.19 606.8 346.42 607.27 347.56C607.75 348.7 608.45 349.74 609.36 350.58C606.76 351.03 604.39 352.39 602.68 354.41C600.97 356.43 600.01 358.99 600 361.64C600 365.49 601.09 369.34 603.87 369.34C607.17 369.34 604.4 366.58 604.4 362.17C604.4 357.22 608.81 355.02 613.24 355.02C619.3 355.02 624.8 360.47 624.8 367.72C624.8 376 618.18 381.52 607.71 381.52C603.54 381.71 599.39 380.95 595.55 379.3C591.72 377.65 588.32 375.16 585.59 372.01C574 359.3 567.47 348.28 567.47 328.44C567.47 303.03 585.59 280.96 612.11 273.8C614.98 272.96 617.5 271.22 619.3 268.83C621.08 266.44 622.05 263.53 622.04 260.54C622.04 255.09 618.73 250.63 613.23 250.63C611.01 250.63 609.36 251.16 609.36 252.82C609.36 254.48 611.01 254.48 612.11 254.48C613.57 254.64 614.9 255.37 615.82 256.5C616.75 257.63 617.19 259.08 617.07 260.54C617.07 261.75 616.82 262.94 616.34 264.05C615.86 265.17 615.17 266.16 614.29 266.99C613.4 267.83 612.36 268.46 611.23 268.88C610.1 269.29 608.89 269.46 607.68 269.4C601.63 269.4 597.77 264.99 597.77 258.91C597.77 247.33 611.56 239.59 622.03 234.65C612.65 230.23 609.34 228.57 602.18 223.05C601.45 222.35 600.86 221.5 600.49 220.57C600.1 219.63 599.93 218.62 599.98 217.61C599.98 214.85 601.63 212.63 603.83 212.63C604.2 212.62 604.56 212.67 604.91 212.8C605.26 212.93 605.57 213.13 605.83 213.4C606.1 213.65 606.29 213.97 606.43 214.32C606.56 214.67 606.62 215.02 606.6 215.4C606.6 217.05 605.48 217.05 605.48 218.16C605.45 218.39 605.47 218.61 605.55 218.82C605.62 219.03 605.74 219.23 605.9 219.39C606.06 219.55 606.26 219.68 606.47 219.75C606.68 219.82 606.92 219.84 607.13 219.8C608.25 219.8 611 218.71 611 214.35C611.01 213.43 610.84 212.52 610.48 211.67C610.12 210.82 609.58 210.06 608.9 209.44C608.22 208.82 607.43 208.34 606.55 208.05C605.69 207.76 604.76 207.65 603.84 207.73C602.63 207.73 601.45 207.98 600.33 208.46C599.23 208.94 598.23 209.64 597.41 210.52C596.57 211.4 595.94 212.43 595.52 213.58C595.12 214.71 594.94 215.92 595.02 217.13C590.7 213.57 586.65 209.69 582.89 205.55L565.25 186.23C560.29 180.78 563.04 170.24 570.21 170.24C570.9 170.19 571.59 170.28 572.24 170.51C572.89 170.74 573.49 171.09 573.99 171.56C574.5 172.02 574.91 172.6 575.19 173.22C575.48 173.84 575.63 174.54 575.64 175.23C575.64 180.18 570.67 177.97 570.67 180.68C570.67 180.96 570.72 181.25 570.83 181.5C570.95 181.77 571.11 182 571.32 182.19C571.53 182.39 571.79 182.54 572.06 182.62C572.33 182.71 572.62 182.74 572.9 182.71C573.96 182.72 575.03 182.51 576.01 182.09C576.98 181.68 577.87 181.05 578.59 180.28C579.32 179.5 579.88 178.58 580.22 177.57C580.58 176.56 580.71 175.48 580.62 174.42C580.47 171.79 579.29 169.33 577.32 167.57C575.35 165.82 572.78 164.91 570.15 165.06C562.9 165.06 558.03 170.51 558.03 178.32L552.5 172.24C528.25 145.75 508.42 134.11 489.06 134.11C482.82 134.02 476.69 135.74 471.42 139.09C458.76 147.7 464.48 163.21 464.48 163.21C464.49 163.18 464.51 163.14 464.52 163.12C465.66 166.07 467.59 168.65 470.09 170.59C471.28 171.48 473.78 172.73 475.22 173.09C476.91 173.62 478.66 173.87 480.44 173.87C489.79 173.87 493.13 168.42 493.13 164.49C493.13 161.18 490.91 158.42 488.72 158.42C488.18 158.42 487.62 158.99 488.72 160.09C489.08 160.45 489.37 160.87 489.56 161.34C489.75 161.82 489.8 162.32 489.81 162.83C490.06 170.23 478.79 170.23 474.57 167.36C471.32 165.16 467.82 160.64 467.82 154.55C467.82 146.27 474.98 139.1 489.32 139.1C505.85 139.1 522.95 146.27 549.42 175.51L579.73 208.63C585.47 215.23 591.95 221.17 599.04 226.3C603.45 229.62 607.3 231.75 611.73 234.59C607.09 237.33 602.83 240.66 599.04 244.5C598.52 241.23 596.85 238.26 594.31 236.13C591.77 233.99 588.56 232.85 585.25 232.9C582.77 232.94 580.35 233.63 578.22 234.91C576.09 236.19 574.33 238.01 573.12 240.17C572.75 241.21 572.08 242.14 571.21 242.81C570.33 243.5 569.28 243.91 568.18 244.03C567.81 244.04 567.44 243.99 567.09 243.86C566.74 243.73 566.44 243.53 566.17 243.26C565.9 242.99 565.7 242.69 565.57 242.33C565.45 241.98 565.4 241.63 565.41 241.25C565.41 240.16 564.85 239.04 563.76 239.04C562.1 239.04 561.55 240.7 561.55 241.8C561.51 242.68 561.66 243.55 561.98 244.38C562.3 245.2 562.79 245.95 563.41 246.57C564.02 247.19 564.77 247.67 565.59 247.99C566.41 248.32 567.29 248.47 568.17 248.43C569.53 248.39 570.85 248 572.02 247.31C572.38 249.67 573.57 251.83 575.41 253.35C577.24 254.86 579.57 255.67 581.95 255.6C584.16 255.6 585.8 255.06 585.8 253.39C585.8 251.72 584.7 251.74 583.05 251.74C582.23 251.83 581.39 251.75 580.62 251.47C579.84 251.2 579.12 250.77 578.53 250.17C577.96 249.59 577.51 248.88 577.24 248.1C576.97 247.32 576.88 246.48 576.99 245.66C577.07 243.55 577.97 241.54 579.53 240.09C581.07 238.64 583.13 237.86 585.24 237.92C590.77 237.92 594.63 241.79 594.63 248.41C594.63 251.73 592.96 254.47 592.96 258.88C592.96 265.51 596.28 271.03 601.8 272.68C575.33 284.26 562.66 307.44 562.66 328.43C562.66 347.72 569.28 363.17 585.25 378.07L597.94 390.21C612.82 404.01 626.05 419.43 626.05 442.07C626.05 464.71 608.96 481.82 586.35 481.82H586.15C566.86 481.82 554.2 470.78 554.2 454.23C554.2 440.43 563.57 429.39 574.59 429.39C578.99 429.39 582.85 431.05 582.85 435.46C582.85 438.21 581.75 440.43 584.5 440.43C586.15 440.43 587.82 438.78 587.82 434.35C587.82 428.9 582.85 424.43 575.69 424.43H574.02C574.78 422.88 575.15 421.18 575.14 419.45C575.17 418.44 574.98 417.42 574.6 416.47C574.23 415.53 573.66 414.66 572.94 413.95C572.22 413.22 571.36 412.66 570.42 412.28C569.48 411.91 568.45 411.72 567.44 411.75C563.57 411.75 559.72 413.96 559.72 416.72C559.68 416.95 559.71 417.17 559.77 417.38C559.85 417.59 559.97 417.79 560.13 417.95C560.29 418.11 560.49 418.23 560.7 418.3C560.91 418.37 561.14 418.39 561.36 418.35C563.01 418.35 563.57 416.72 566.33 416.72C566.85 416.65 567.37 416.72 567.86 416.89C568.36 417.06 568.8 417.34 569.18 417.71C569.55 418.08 569.83 418.52 570 419.03C570.17 419.52 570.23 420.05 570.17 420.57C570.17 424.44 566.86 426.02 564.11 427.74C559.51 430.44 555.71 434.32 553.1 438.98C550.48 443.63 549.15 448.9 549.23 454.24C549.23 469.69 558.05 479.65 570.73 484.02L562.47 496.73C551.44 496.73 545.91 505.02 536 522.66C535.55 520.4 534.29 518.38 532.48 516.96C530.66 515.54 528.39 514.82 526.09 514.93C520.02 514.93 516.15 519.34 516.15 525.42C516.08 526.08 516.28 526.74 516.69 527.25C517.1 527.75 517.7 528.09 518.35 528.17C518.72 528.2 519.09 528.13 519.44 528.01C519.77 527.88 520.09 527.68 520.36 527.41C520.61 527.16 520.81 526.84 520.94 526.51C521.07 526.16 521.13 525.79 521.11 525.42C521.06 524.73 521.15 524.04 521.38 523.39C521.61 522.74 521.95 522.14 522.42 521.62C522.88 521.12 523.46 520.7 524.08 520.42C524.72 520.14 525.4 519.98 526.09 519.98C529.94 519.98 531.52 522.73 531.52 526.04C531.64 529.81 530.47 533.51 528.2 536.53C516.64 555.27 500.64 564.67 486.88 564.67C474.72 564.67 467.57 557.5 467.57 550.32C467.57 543.69 471.42 538.18 478.04 538.18C482.45 538.18 485.2 540.94 485.2 544.78C485.2 548.1 482.45 548.1 482.45 549.76C482.45 550.86 483.55 551.41 484.66 551.41C487.98 551.41 490.09 547.57 490.09 543.69C490.09 537.62 485.13 533.2 477.97 533.2C475.06 533.2 472.44 534.44 469.77 535.59C463.78 538.18 461.98 546.11 462.53 550.7C463.09 555.36 463.78 558.21 467.54 561.97C469.68 564.11 473.68 566.4 476.1 567.35C471.57 572.56 464.51 584.39 464.5 584.37L461.28 589.51C461.28 589.51 460.03 592.01 461.28 593.27C462.53 594.52 464.01 593.31 464.5 592.77C466.29 590.77 473.81 575.37 480.28 568.9C482.46 569.35 484.68 569.54 486.9 569.44C502.33 569.44 521.07 557.86 532.66 538L539.82 525.86C546.98 513.73 551.95 501.58 562.42 501.58C567.87 501.58 571.8 504.91 571.8 509.3C571.81 510.34 571.64 511.35 571.26 512.29C570.89 513.25 570.32 514.11 569.6 514.83C568.87 515.56 568.01 516.13 567.06 516.5C566.12 516.89 565.09 517.07 564.07 517.04C560.22 517.04 560.22 515.38 558.64 515.38C558.35 515.35 558.04 515.38 557.76 515.49C557.48 515.6 557.23 515.76 557.02 515.97C556.81 516.17 556.65 516.42 556.54 516.7C556.43 516.99 556.39 517.28 556.43 517.58C556.43 519.8 559.74 522.02 564.15 522.02C565.82 522.05 567.48 521.74 569.04 521.1C570.59 520.48 572 519.55 573.19 518.35C574.37 517.17 575.3 515.76 575.93 514.21C576.57 512.66 576.87 510.98 576.85 509.31C576.76 506.59 575.8 503.94 574.13 501.78C572.44 499.63 570.13 498.06 567.5 497.3L575.21 485.7C578.85 486.34 582.53 486.7 586.22 486.8C611.6 486.8 630.89 468.03 630.89 442.1C630.98 439.15 630.8 436.2 630.35 433.28C629.25 427.21 630.35 423.36 634.76 423.36C635.3 423.29 635.86 423.33 636.38 423.49C636.91 423.66 637.4 423.93 637.81 424.29C638.22 424.66 638.57 425.1 638.79 425.61C639.03 426.11 639.15 426.66 639.15 427.22C639.15 428.87 638.05 431.09 640.25 431.09C643.01 431.09 643.01 427.77 643.01 426.68C643.01 421.7 640.25 418.38 634.75 418.38L634.73 418.31ZM646.33 323.42H646.24C641.3 317.32 638.53 314.56 638.53 312.37C638.53 310.18 640.18 306.92 641.83 302.98L658.37 266.57C663.34 255.53 667.74 246.15 667.74 234.58C667.74 226.29 664.44 218.01 656.18 210.84L632.46 190.41C631.52 189.63 630.88 188.52 630.68 187.31C630.48 186.09 630.72 184.84 631.36 183.79L640.18 163.93C640.53 163.27 640.61 162.5 640.39 161.78C640.19 161.06 639.73 160.45 639.07 160.08C612.06 141.92 581.19 130.82 551.96 122.54C522.82 114.85 483.81 103.85 464.48 89V106.15C481.57 117.14 509.08 124.24 539.89 132.56C572.4 141.41 594.47 148.01 622.03 165.13C623.68 166.22 623.68 167.89 622.56 170.1L613.75 188.26C613.44 188.88 613.32 189.59 613.43 190.28C613.52 190.97 613.84 191.62 614.32 192.13L641.78 216.93C648.4 222.38 653.34 227.96 653.34 235.7C653.34 245.08 648.94 253.85 644.53 263.26L625.28 305.21C624.18 307.42 621.96 311.84 621.96 314.04C621.96 316.24 624.18 319 626.37 321.77C656.16 354.87 666.07 382.45 666.07 413.36C666.07 449.67 651.19 481.79 620.31 513.2L620.36 513.23C596.11 538.06 560.28 555.71 526.1 572.28C503.53 583.29 481.54 594.3 464.46 607.51V625.2C486.49 607.56 510.17 596.53 532.74 585.51C566.91 568.96 604.97 550.75 631.42 523.18C657.89 496.11 681.03 460.25 681.03 413.36C681.03 379.68 671.12 354.31 646.3 323.41L646.33 323.42Z" fill="white"/>
<path d="M532.63 331.63C532.63 337.16 528.15 341.64 522.61 341.64C517.07 341.64 512.59 337.16 512.59 331.63C512.59 331.42 512.6 331.2 512.62 331L483.8 311.77V238.9C480.81 237.19 478.79 233.94 478.79 230.24C478.79 224.71 483.27 220.23 488.81 220.23C494.35 220.23 498.83 224.71 498.83 230.24C498.83 233.95 496.81 237.19 493.82 238.9V306.42L518.16 322.67C519.5 321.99 521.01 321.62 522.62 321.62C528.15 321.62 532.64 326.1 532.64 331.63H532.63Z" fill="white"/>
<path d="M502.48 503.11C502.48 508.64 498 513.12 492.46 513.12C486.92 513.12 482.44 508.64 482.44 503.11C482.44 499.4 484.46 496.16 487.45 494.45V464.21C484.46 462.5 482.44 459.25 482.44 455.55C482.44 450.02 486.92 445.54 492.46 445.54C498 445.54 502.48 450.02 502.48 455.55C502.48 459.26 500.46 462.5 497.47 464.21V494.45C500.46 496.16 502.48 499.41 502.48 503.11Z" fill="white"/>
<path d="M493.82 400.48C493.82 406.01 489.34 410.49 483.8 410.49C478.26 410.49 473.78 406.01 473.78 400.48C473.78 400.27 473.79 400.05 473.81 399.84L442.41 380.59V314.94C442.41 312.17 444.65 309.93 447.42 309.93C450.19 309.93 452.43 312.17 452.43 314.94V374.98L479.37 391.5C480.71 390.84 482.21 390.46 483.8 390.46C489.33 390.46 493.82 394.94 493.82 400.47V400.48Z" fill="white"/>
<path d="M193.84 635.01L150 749H157.86L201.63 635.01H193.84ZM306.17 703.86C302.95 700.12 298.77 697.76 293.63 696.8C298.15 695.5 301.65 693.2 304.16 689.88C306.66 686.51 307.92 682.65 307.92 678.28C307.92 670.82 305.23 665.25 299.85 661.54C294.45 657.85 286.92 656 277.2 656H238.62V662.35L250.38 663.28V732.79L238.62 733.73V740H282.17C291.07 740 298.08 738.03 303.23 734.09C308.43 730.15 311.02 724.4 311.02 716.85C311.02 711.96 309.42 707.63 306.19 703.87L306.17 703.86ZM259.01 663.78H277.19C284.59 663.78 290.12 664.96 293.78 667.31C297.44 669.61 299.26 673.34 299.26 678.49C299.26 683.64 297.44 687.31 293.84 689.96C290.28 692.55 285.1 693.9 278.27 693.99H259.02V663.79L259.01 663.78ZM297.09 728.67C293.57 731.46 288.6 732.85 282.15 732.85H259V700.77H282.15C288.55 700.77 293.51 702.23 297.01 705.16C300.57 708.09 302.34 711.94 302.34 716.7C302.34 721.89 300.59 725.87 297.08 728.67H297.09ZM592.66 655.09V739.99H615.98V655.09H592.66ZM717.91 656V662.35L729.67 663.28V725.8L729.23 725.94L678.6 656.01H658.19V662.36L669.95 663.29V732.8L658.19 733.74V740.01H690.35V733.74L678.59 732.8V670.15L679.03 670.07L729.66 740H738.24V663.28L750 662.35V656H717.91Z" fill="white"/>
<path d="M494.69 658.09L456.58 742.99H479.18L486.27 726.17H525.96L532.95 742.99H556L517.74 658.09H494.69ZM493.35 709.33L506.26 678.69L518.97 709.33H493.35Z" fill="white"/>
<path d="M419 736.07L405.48 704.94C407.17 704.53 408.75 703.99 410.2 703.34C414.53 701.37 417.77 698.66 419.94 695.19C422.16 691.69 423.26 687.6 423.26 682.94C423.26 677.8 422.13 673.45 419.87 669.9C417.62 666.33 414.32 663.64 409.99 661.81C405.66 659.94 400.35 659.01 394.05 659.01H351.28V665.36L363.04 666.29V735.8L351.28 736.74V743.01H383.44V736.74L371.68 735.8V706.25H394.04C395.1 706.25 396.14 706.22 397.14 706.16L412.71 743.01H427.63V736.74L418.98 736.09L419 736.07ZM371.69 699.02V666.21H394.05C401.21 666.21 406.43 667.65 409.7 670.53C412.97 673.37 414.61 677.5 414.61 682.93C414.61 688.36 412.97 692.23 409.7 694.97C406.48 697.66 401.26 699.01 394.05 699.01H371.69V699.02Z" fill="white"/>
</svg>
